<svg xmlns="http://www.w3.org/2000/svg" viewBox="0 0 100.249 25.741"><defs><style>.a{fill:#fff;}.b{fill:#1062fb;}.c{fill:#2eb785;}.d{fill:#ffc420;}</style></defs><g transform="translate(-28 -44.484)"><g transform="translate(68.438 44.485)"><path class="a" d="M190.9,9.882,200.2,0h4.445l-9.105,9.925c3.215,4.035,6.473,8.07,9.731,12.1h-4.423l-7.7-9.451L190.9,14.953V22.03h-3.5V0h3.5Z" transform="translate(-187.4)"/><path class="a" d="M282.931,1.5V23.228h-3.5V5.6L274.3,10.023V6.1l5.265-4.6Z" transform="translate(-255.55 -1.176)"/><path class="a" d="M340.433,4.378l-.69,5.2a5.582,5.582,0,0,1,4.466-1.856c4.035,0,7.228,3.042,7.228,7.768,0,5.071-3.668,7.94-8.005,7.94-5.351,0-7.487-3.625-7.832-6.193l3.539-.626a4.16,4.16,0,0,0,4.294,3.884c2.978,0,4.38-2.5,4.38-5.006,0-2.481-1.467-4.92-4.38-4.92a4.155,4.155,0,0,0-3.905,2.438l-3.344-.69L337.564,1.4h11.695V4.378h-8.825Z" transform="translate(-303.623 -1.098)"/><path class="a" d="M421.1,14.642V12.074h2.719V7.5h3.388v4.574h3.28v2.568h-3.28v8.976c0,1.251.367,1.618,1.467,1.618.475,0,.971-.065,1.51-.065V27.89l-2.007.129h-.41c-2.978,0-3.949-1.6-3.949-4.639V14.642Z" transform="translate(-370.675 -5.882)"/></g><g transform="translate(28 44.485)"><path class="b" d="M12.375,4.4,7.52,12.811A2.875,2.875,0,0,1,3.636,13.89h0L.119,11.862h0L.076,11.84H.1A.244.244,0,0,1,.033,11.5a.336.336,0,0,1,.173-.129h0A2.877,2.877,0,0,0,2.514,9.942l.6-1.057L7.348,1.548A2.889,2.889,0,0,1,12.375,4.4Z" transform="translate(0.013 -0.082)"/><path class="c" d="M38.4,4.34,26.875,24.3a2.876,2.876,0,0,1-4.984-2.87L33.413,1.448A2.881,2.881,0,1,1,38.4,4.34Z" transform="translate(-16.861 -0.003)"/><path class="d" d="M88.326,4.418,78.875,20.795a2.876,2.876,0,0,1-4.984-2.87L83.342,1.548a2.876,2.876,0,0,1,4.984,2.87Z" transform="translate(-57.641 -0.082)"/></g></g></svg>