<svg xmlns="http://www.w3.org/2000/svg" width="478.141" height="461.32" viewBox="0 0 478.141 461.32"><g transform="translate(-990.45 -101)"><g transform="translate(-5009.695 -1957.271)"><circle cx="2.807" cy="2.807" r="2.807" transform="translate(6472.672 2104.289)" fill="#ed5030"/><circle cx="2.807" cy="2.807" r="2.807" transform="translate(6472.672 2124.38)" fill="#ed5030"/><circle cx="2.807" cy="2.807" r="2.807" transform="translate(6472.672 2144.476)" fill="#ed5030"/><circle cx="2.807" cy="2.807" r="2.807" transform="translate(6472.672 2164.571)" fill="#ed5030"/><circle cx="2.807" cy="2.807" r="2.807" transform="translate(6472.672 2184.662)" fill="#ed5030"/><circle cx="2.807" cy="2.807" r="2.807" transform="translate(6472.672 2204.757)" fill="#ed5030"/><circle cx="2.807" cy="2.807" r="2.807" transform="translate(6472.672 2224.853)" fill="#ed5030"/><circle cx="2.807" cy="2.807" r="2.807" transform="translate(6472.672 2244.944)" fill="#ed5030"/><circle cx="2.807" cy="2.807" r="2.807" transform="translate(6472.672 2285.135)" fill="#ed5030"/><circle cx="2.807" cy="2.807" r="2.807" transform="translate(6472.672 2305.226)" fill="#ed5030"/><circle cx="2.807" cy="2.807" r="2.807" transform="translate(6472.672 2265.039)" fill="#ed5030"/><circle cx="2.807" cy="2.807" r="2.807" transform="translate(6453.777 2104.289)" fill="#ed5030"/><circle cx="2.807" cy="2.807" r="2.807" transform="translate(6453.777 2124.38)" fill="#ed5030"/><circle cx="2.807" cy="2.807" r="2.807" transform="translate(6453.777 2144.476)" fill="#ed5030"/><circle cx="2.807" cy="2.807" r="2.807" transform="translate(6453.777 2164.571)" fill="#ed5030"/><circle cx="2.807" cy="2.807" r="2.807" transform="translate(6453.777 2184.662)" fill="#ed5030"/><circle cx="2.807" cy="2.807" r="2.807" transform="translate(6453.777 2204.757)" fill="#ed5030"/><circle cx="2.807" cy="2.807" r="2.807" transform="translate(6453.777 2224.853)" fill="#ed5030"/><circle cx="2.807" cy="2.807" r="2.807" transform="translate(6453.777 2244.944)" fill="#ed5030"/><circle cx="2.807" cy="2.807" r="2.807" transform="translate(6453.777 2285.135)" fill="#ed5030"/><circle cx="2.807" cy="2.807" r="2.807" transform="translate(6453.777 2305.226)" fill="#ed5030"/><circle cx="2.807" cy="2.807" r="2.807" transform="translate(6453.777 2265.039)" fill="#ed5030"/><circle cx="2.807" cy="2.807" r="2.807" transform="translate(6434.886 2104.289)" fill="#ed5030"/><circle cx="2.807" cy="2.807" r="2.807" transform="translate(6434.886 2124.38)" fill="#ed5030"/><circle cx="2.807" cy="2.807" r="2.807" transform="translate(6434.886 2144.476)" fill="#ed5030"/><circle cx="2.807" cy="2.807" r="2.807" transform="translate(6434.886 2164.571)" fill="#ed5030"/><circle cx="2.807" cy="2.807" r="2.807" transform="translate(6434.886 2184.662)" fill="#ed5030"/><circle cx="2.807" cy="2.807" r="2.807" transform="translate(6434.886 2204.757)" fill="#ed5030"/><circle cx="2.807" cy="2.807" r="2.807" transform="translate(6434.886 2224.853)" fill="#ed5030"/><circle cx="2.807" cy="2.807" r="2.807" transform="translate(6434.886 2244.944)" fill="#ed5030"/><circle cx="2.807" cy="2.807" r="2.807" transform="translate(6434.886 2285.135)" fill="#ed5030"/><circle cx="2.807" cy="2.807" r="2.807" transform="translate(6434.886 2305.226)" fill="#ed5030"/><circle cx="2.807" cy="2.807" r="2.807" transform="translate(6434.886 2265.039)" fill="#ed5030"/><circle cx="2.807" cy="2.807" r="2.807" transform="translate(6415.995 2104.289)" fill="#ed5030"/><circle cx="2.807" cy="2.807" r="2.807" transform="translate(6415.995 2124.38)" fill="#ed5030"/><circle cx="2.807" cy="2.807" r="2.807" transform="translate(6415.995 2144.476)" fill="#ed5030"/><circle cx="2.807" cy="2.807" r="2.807" transform="translate(6415.995 2164.571)" fill="#ed5030"/><circle cx="2.807" cy="2.807" r="2.807" transform="translate(6415.995 2184.662)" fill="#ed5030"/><circle cx="2.807" cy="2.807" r="2.807" transform="translate(6415.995 2204.757)" fill="#ed5030"/><circle cx="2.807" cy="2.807" r="2.807" transform="translate(6415.995 2224.853)" fill="#ed5030"/><circle cx="2.807" cy="2.807" r="2.807" transform="translate(6415.995 2244.944)" fill="#ed5030"/><circle cx="2.807" cy="2.807" r="2.807" transform="translate(6415.995 2285.135)" fill="#ed5030"/><circle cx="2.807" cy="2.807" r="2.807" transform="translate(6415.995 2305.226)" fill="#ed5030"/><circle cx="2.807" cy="2.807" r="2.807" transform="translate(6415.995 2265.039)" fill="#ed5030"/><circle cx="2.807" cy="2.807" r="2.807" transform="translate(6397.1 2104.289)" fill="#ed5030"/><circle cx="2.807" cy="2.807" r="2.807" transform="translate(6397.1 2124.38)" fill="#ed5030"/><circle cx="2.807" cy="2.807" r="2.807" transform="translate(6397.1 2144.476)" fill="#ed5030"/><circle cx="2.807" cy="2.807" r="2.807" transform="translate(6397.1 2164.571)" fill="#ed5030"/><circle cx="2.807" cy="2.807" r="2.807" transform="translate(6397.1 2184.662)" fill="#ed5030"/><circle cx="2.807" cy="2.807" r="2.807" transform="translate(6397.1 2204.757)" fill="#ed5030"/><circle cx="2.807" cy="2.807" r="2.807" transform="translate(6397.1 2224.853)" fill="#ed5030"/><circle cx="2.807" cy="2.807" r="2.807" transform="translate(6397.1 2244.944)" fill="#ed5030"/><circle cx="2.807" cy="2.807" r="2.807" transform="translate(6397.1 2285.135)" fill="#ed5030"/><circle cx="2.807" cy="2.807" r="2.807" transform="translate(6397.1 2305.226)" fill="#ed5030"/><circle cx="2.807" cy="2.807" r="2.807" transform="translate(6397.1 2265.039)" fill="#ed5030"/><circle cx="2.807" cy="2.807" r="2.807" transform="translate(6378.209 2104.289)" fill="#ed5030"/><circle cx="2.807" cy="2.807" r="2.807" transform="translate(6378.209 2124.38)" fill="#ed5030"/><circle cx="2.807" cy="2.807" r="2.807" transform="translate(6378.209 2144.476)" fill="#ed5030"/><circle cx="2.807" cy="2.807" r="2.807" transform="translate(6378.209 2164.571)" fill="#ed5030"/><circle cx="2.807" cy="2.807" r="2.807" transform="translate(6378.209 2184.662)" fill="#ed5030"/><circle cx="2.807" cy="2.807" r="2.807" transform="translate(6378.209 2204.757)" fill="#ed5030"/><circle cx="2.807" cy="2.807" r="2.807" transform="translate(6378.209 2224.853)" fill="#ed5030"/><circle cx="2.807" cy="2.807" r="2.807" transform="translate(6378.209 2244.944)" fill="#ed5030"/><circle cx="2.807" cy="2.807" r="2.807" transform="translate(6378.209 2285.135)" fill="#ed5030"/><circle cx="2.807" cy="2.807" r="2.807" transform="translate(6378.209 2305.226)" fill="#ed5030"/><circle cx="2.807" cy="2.807" r="2.807" transform="translate(6378.209 2265.039)" fill="#ed5030"/><circle cx="2.807" cy="2.807" r="2.807" transform="translate(6359.314 2104.289)" fill="#ed5030"/><circle cx="2.807" cy="2.807" r="2.807" transform="translate(6359.314 2124.38)" fill="#ed5030"/><circle cx="2.807" cy="2.807" r="2.807" transform="translate(6359.314 2144.476)" fill="#ed5030"/><circle cx="2.807" cy="2.807" r="2.807" transform="translate(6359.314 2164.571)" fill="#ed5030"/><circle cx="2.807" cy="2.807" r="2.807" transform="translate(6359.314 2184.662)" fill="#ed5030"/><circle cx="2.807" cy="2.807" r="2.807" transform="translate(6359.314 2204.757)" fill="#ed5030"/><circle cx="2.807" cy="2.807" r="2.807" transform="translate(6359.314 2224.853)" fill="#ed5030"/><circle cx="2.807" cy="2.807" r="2.807" transform="translate(6359.314 2244.944)" fill="#ed5030"/><circle cx="2.807" cy="2.807" r="2.807" transform="translate(6359.314 2285.135)" fill="#ed5030"/><circle cx="2.807" cy="2.807" r="2.807" transform="translate(6359.314 2305.226)" fill="#ed5030"/><circle cx="2.807" cy="2.807" r="2.807" transform="translate(6359.314 2265.039)" fill="#ed5030"/><circle cx="2.807" cy="2.807" r="2.807" transform="translate(6340.423 2104.289)" fill="#ed5030"/><circle cx="2.807" cy="2.807" r="2.807" transform="translate(6340.423 2124.38)" fill="#ed5030"/><circle cx="2.807" cy="2.807" r="2.807" transform="translate(6340.423 2144.476)" fill="#ed5030"/><circle cx="2.807" cy="2.807" r="2.807" transform="translate(6340.423 2164.571)" fill="#ed5030"/><circle cx="2.807" cy="2.807" r="2.807" transform="translate(6340.423 2184.662)" fill="#ed5030"/><circle cx="2.807" cy="2.807" r="2.807" transform="translate(6340.423 2204.757)" fill="#ed5030"/><circle cx="2.807" cy="2.807" r="2.807" transform="translate(6340.423 2224.853)" fill="#ed5030"/><circle cx="2.807" cy="2.807" r="2.807" transform="translate(6340.423 2244.944)" fill="#ed5030"/><circle cx="2.807" cy="2.807" r="2.807" transform="translate(6340.423 2285.135)" fill="#ed5030"/><circle cx="2.807" cy="2.807" r="2.807" transform="translate(6340.423 2305.226)" fill="#ed5030"/><circle cx="2.807" cy="2.807" r="2.807" transform="translate(6340.423 2265.039)" fill="#ed5030"/><circle cx="2.807" cy="2.807" r="2.807" transform="translate(6322.134 2104.289)" fill="#ed5030"/><circle cx="2.807" cy="2.807" r="2.807" transform="translate(6322.134 2124.38)" fill="#ed5030"/><circle cx="2.807" cy="2.807" r="2.807" transform="translate(6322.134 2144.476)" fill="#ed5030"/><circle cx="2.807" cy="2.807" r="2.807" transform="translate(6322.134 2164.571)" fill="#ed5030"/><circle cx="2.807" cy="2.807" r="2.807" transform="translate(6322.134 2184.662)" fill="#ed5030"/><circle cx="2.807" cy="2.807" r="2.807" transform="translate(6322.134 2204.757)" fill="#ed5030"/><circle cx="2.807" cy="2.807" r="2.807" transform="translate(6322.134 2224.853)" fill="#ed5030"/><circle cx="2.807" cy="2.807" r="2.807" transform="translate(6322.134 2244.944)" fill="#ed5030"/><circle cx="2.807" cy="2.807" r="2.807" transform="translate(6322.134 2285.135)" fill="#ed5030"/><circle cx="2.807" cy="2.807" r="2.807" transform="translate(6322.134 2305.226)" fill="#ed5030"/><circle cx="2.807" cy="2.807" r="2.807" transform="translate(6322.134 2265.039)" fill="#ed5030"/><circle cx="2.807" cy="2.807" r="2.807" transform="translate(6303.243 2104.289)" fill="#ed5030"/><circle cx="2.807" cy="2.807" r="2.807" transform="translate(6303.243 2124.38)" fill="#ed5030"/><circle cx="2.807" cy="2.807" r="2.807" transform="translate(6303.243 2144.476)" fill="#ed5030"/><circle cx="2.807" cy="2.807" r="2.807" transform="translate(6303.243 2164.571)" fill="#ed5030"/><circle cx="2.807" cy="2.807" r="2.807" transform="translate(6303.243 2184.662)" fill="#ed5030"/><circle cx="2.807" cy="2.807" r="2.807" transform="translate(6303.243 2204.757)" fill="#ed5030"/><circle cx="2.807" cy="2.807" r="2.807" transform="translate(6303.243 2224.853)" fill="#ed5030"/><circle cx="2.807" cy="2.807" r="2.807" transform="translate(6303.243 2244.944)" fill="#ed5030"/><circle cx="2.807" cy="2.807" r="2.807" transform="translate(6303.243 2285.135)" fill="#ed5030"/><circle cx="2.807" cy="2.807" r="2.807" transform="translate(6303.243 2305.226)" fill="#ed5030"/><circle cx="2.807" cy="2.807" r="2.807" transform="translate(6303.243 2265.039)" fill="#ed5030"/><circle cx="2.807" cy="2.807" r="2.807" transform="translate(6284.348 2104.289)" fill="#ed5030"/><circle cx="2.807" cy="2.807" r="2.807" transform="translate(6284.348 2124.38)" fill="#ed5030"/><circle cx="2.807" cy="2.807" r="2.807" transform="translate(6284.348 2144.476)" fill="#ed5030"/><circle cx="2.807" cy="2.807" r="2.807" transform="translate(6284.348 2164.571)" fill="#ed5030"/><circle cx="2.807" cy="2.807" r="2.807" transform="translate(6284.348 2184.662)" fill="#ed5030"/><circle cx="2.807" cy="2.807" r="2.807" transform="translate(6284.348 2204.757)" fill="#ed5030"/><circle cx="2.807" cy="2.807" r="2.807" transform="translate(6284.348 2224.853)" fill="#ed5030"/><circle cx="2.807" cy="2.807" r="2.807" transform="translate(6284.348 2244.944)" fill="#ed5030"/><circle cx="2.807" cy="2.807" r="2.807" transform="translate(6284.348 2285.135)" fill="#ed5030"/><circle cx="2.807" cy="2.807" r="2.807" transform="translate(6284.348 2305.226)" fill="#ed5030"/><circle cx="2.807" cy="2.807" r="2.807" transform="translate(6284.348 2265.039)" fill="#ed5030"/><circle cx="2.807" cy="2.807" r="2.807" transform="translate(6265.457 2104.289)" fill="#ed5030"/><circle cx="2.807" cy="2.807" r="2.807" transform="translate(6265.457 2124.38)" fill="#ed5030"/><circle cx="2.807" cy="2.807" r="2.807" transform="translate(6265.457 2144.476)" fill="#ed5030"/><circle cx="2.807" cy="2.807" r="2.807" transform="translate(6265.457 2164.571)" fill="#ed5030"/><circle cx="2.807" cy="2.807" r="2.807" transform="translate(6265.457 2184.662)" fill="#ed5030"/><circle cx="2.807" cy="2.807" r="2.807" transform="translate(6265.457 2204.757)" fill="#ed5030"/><circle cx="2.807" cy="2.807" r="2.807" transform="translate(6265.457 2224.853)" fill="#ed5030"/><circle cx="2.807" cy="2.807" r="2.807" transform="translate(6265.457 2244.944)" fill="#ed5030"/><circle cx="2.807" cy="2.807" r="2.807" transform="translate(6265.457 2285.135)" fill="#ed5030"/><circle cx="2.807" cy="2.807" r="2.807" transform="translate(6265.457 2305.226)" fill="#ed5030"/><circle cx="2.807" cy="2.807" r="2.807" transform="translate(6265.457 2265.039)" fill="#ed5030"/><circle cx="2.807" cy="2.807" r="2.807" transform="translate(6246.566 2104.289)" fill="#ed5030"/><circle cx="2.807" cy="2.807" r="2.807" transform="translate(6246.566 2124.38)" fill="#ed5030"/><circle cx="2.807" cy="2.807" r="2.807" transform="translate(6246.566 2144.476)" fill="#ed5030"/><circle cx="2.807" cy="2.807" r="2.807" transform="translate(6246.566 2164.571)" fill="#ed5030"/><circle cx="2.807" cy="2.807" r="2.807" transform="translate(6246.566 2184.662)" fill="#ed5030"/><circle cx="2.807" cy="2.807" r="2.807" transform="translate(6246.566 2204.757)" fill="#ed5030"/><circle cx="2.807" cy="2.807" r="2.807" transform="translate(6246.566 2224.853)" fill="#ed5030"/><circle cx="2.807" cy="2.807" r="2.807" transform="translate(6246.566 2244.944)" fill="#ed5030"/><circle cx="2.807" cy="2.807" r="2.807" transform="translate(6246.566 2285.135)" fill="#ed5030"/><circle cx="2.807" cy="2.807" r="2.807" transform="translate(6246.566 2305.226)" fill="#ed5030"/><circle cx="2.807" cy="2.807" r="2.807" transform="translate(6246.566 2265.039)" fill="#ed5030"/><circle cx="2.807" cy="2.807" r="2.807" transform="translate(6227.671 2104.289)" fill="#ed5030"/><circle cx="2.807" cy="2.807" r="2.807" transform="translate(6227.671 2124.38)" fill="#ed5030"/><circle cx="2.807" cy="2.807" r="2.807" transform="translate(6227.671 2144.476)" fill="#ed5030"/><circle cx="2.807" cy="2.807" r="2.807" transform="translate(6227.671 2164.571)" fill="#ed5030"/><circle cx="2.807" cy="2.807" r="2.807" transform="translate(6227.671 2184.662)" fill="#ed5030"/><circle cx="2.807" cy="2.807" r="2.807" transform="translate(6227.671 2204.757)" fill="#ed5030"/><circle cx="2.807" cy="2.807" r="2.807" transform="translate(6227.671 2224.853)" fill="#ed5030"/><circle cx="2.807" cy="2.807" r="2.807" transform="translate(6227.671 2244.944)" fill="#ed5030"/><circle cx="2.807" cy="2.807" r="2.807" transform="translate(6227.671 2285.135)" fill="#ed5030"/><circle cx="2.807" cy="2.807" r="2.807" transform="translate(6227.671 2305.226)" fill="#ed5030"/><circle cx="2.807" cy="2.807" r="2.807" transform="translate(6227.671 2265.039)" fill="#ed5030"/><circle cx="2.807" cy="2.807" r="2.807" transform="translate(6208.78 2104.289)" fill="#ed5030"/><circle cx="2.807" cy="2.807" r="2.807" transform="translate(6208.78 2124.38)" fill="#ed5030"/><circle cx="2.807" cy="2.807" r="2.807" transform="translate(6208.78 2144.476)" fill="#ed5030"/><circle cx="2.807" cy="2.807" r="2.807" transform="translate(6208.78 2164.571)" fill="#ed5030"/><circle cx="2.807" cy="2.807" r="2.807" transform="translate(6208.78 2184.662)" fill="#ed5030"/><circle cx="2.807" cy="2.807" r="2.807" transform="translate(6208.78 2204.757)" fill="#ed5030"/><circle cx="2.807" cy="2.807" r="2.807" transform="translate(6208.78 2224.853)" fill="#ed5030"/><circle cx="2.807" cy="2.807" r="2.807" transform="translate(6208.78 2244.944)" fill="#ed5030"/><circle cx="2.807" cy="2.807" r="2.807" transform="translate(6208.78 2285.135)" fill="#ed5030"/><circle cx="2.807" cy="2.807" r="2.807" transform="translate(6208.78 2305.226)" fill="#ed5030"/><circle cx="2.807" cy="2.807" r="2.807" transform="translate(6208.78 2265.039)" fill="#ed5030"/><circle cx="2.807" cy="2.807" r="2.807" transform="translate(6189.885 2104.289)" fill="#ed5030"/><circle cx="2.807" cy="2.807" r="2.807" transform="translate(6189.885 2124.38)" fill="#ed5030"/><circle cx="2.807" cy="2.807" r="2.807" transform="translate(6189.885 2144.476)" fill="#ed5030"/><circle cx="2.807" cy="2.807" r="2.807" transform="translate(6189.885 2164.571)" fill="#ed5030"/><circle cx="2.807" cy="2.807" r="2.807" transform="translate(6189.885 2184.662)" fill="#ed5030"/><circle cx="2.807" cy="2.807" r="2.807" transform="translate(6189.885 2204.757)" fill="#ed5030"/><circle cx="2.807" cy="2.807" r="2.807" transform="translate(6189.885 2224.853)" fill="#ed5030"/><circle cx="2.807" cy="2.807" r="2.807" transform="translate(6189.885 2244.944)" fill="#ed5030"/><circle cx="2.807" cy="2.807" r="2.807" transform="translate(6189.885 2285.135)" fill="#ed5030"/><circle cx="2.807" cy="2.807" r="2.807" transform="translate(6189.885 2305.226)" fill="#ed5030"/><circle cx="2.807" cy="2.807" r="2.807" transform="translate(6189.885 2265.039)" fill="#ed5030"/><line x2="93.296" y2="187.178" transform="translate(6200.5 2092.5)" stroke-width="4.709" stroke="#2b3556" stroke-linecap="round" stroke-linejoin="round" fill="none"/><line x1="167.099" y2="74.031" transform="translate(6031.401 2092.5)" stroke-width="4.709" stroke="#2b3556" stroke-linecap="round" stroke-linejoin="round" fill="none"/><line x1="62.296" y2="204.822" transform="translate(6231.5 2279.678)" stroke-width="4.709" stroke="#2b3556" stroke-linecap="round" stroke-linejoin="round" fill="none"/><line x2="258.515" y2="111.148" transform="translate(6031.401 2166.531)" stroke-width="4.709" stroke="#2b3556" stroke-linecap="round" stroke-linejoin="round" fill="none"/><circle cx="37" cy="37" r="37" transform="translate(6162.297 2058.271)" fill="#ffc420"/><circle cx="30" cy="30" r="30" transform="translate(6000.145 2135.092)" fill="#9c69d0"/><circle cx="65" cy="65" r="65" transform="translate(6228.687 2214.678)" fill="#26e9a4"/><circle cx="35" cy="35" r="35" transform="translate(6196.855 2449.592)" fill="#0a0ae0"/></g></g></svg>