<svg xmlns="http://www.w3.org/2000/svg" viewBox="0 0 221.2 197.2"><defs><style>.cls-1{fill:#d5d7dd;}</style></defs><g id="Layer_2" data-name="Layer 2"><g id="Illu"><circle class="cls-1" cx="2.7" cy="194.5" r="2.7"/><circle class="cls-1" cx="2.7" cy="175.3" r="2.7"/><circle class="cls-1" cx="2.7" cy="156.1" r="2.7"/><circle class="cls-1" cx="2.7" cy="136.9" r="2.7"/><circle class="cls-1" cx="2.7" cy="117.8" r="2.7"/><circle class="cls-1" cx="2.7" cy="98.6" r="2.7"/><circle class="cls-1" cx="2.7" cy="79.4" r="2.7"/><circle class="cls-1" cx="2.7" cy="60.2" r="2.7"/><circle class="cls-1" cx="2.7" cy="21.9" r="2.7"/><circle class="cls-1" cx="2.7" cy="2.7" r="2.7"/><circle class="cls-1" cx="2.7" cy="41" r="2.7"/><circle class="cls-1" cx="20.7" cy="194.5" r="2.7"/><circle class="cls-1" cx="20.7" cy="175.3" r="2.7"/><circle class="cls-1" cx="20.7" cy="156.1" r="2.7"/><circle class="cls-1" cx="20.7" cy="136.9" r="2.7"/><circle class="cls-1" cx="20.7" cy="117.8" r="2.7"/><circle class="cls-1" cx="20.7" cy="98.6" r="2.7"/><circle class="cls-1" cx="20.7" cy="79.4" r="2.7"/><circle class="cls-1" cx="20.7" cy="60.2" r="2.7"/><circle class="cls-1" cx="20.7" cy="21.9" r="2.7"/><circle class="cls-1" cx="20.7" cy="2.7" r="2.7"/><circle class="cls-1" cx="20.7" cy="41" r="2.7"/><circle class="cls-1" cx="38.7" cy="194.5" r="2.7"/><circle class="cls-1" cx="38.7" cy="175.3" r="2.7"/><circle class="cls-1" cx="38.7" cy="156.1" r="2.7"/><circle class="cls-1" cx="38.7" cy="136.9" r="2.7"/><circle class="cls-1" cx="38.7" cy="117.8" r="2.7"/><circle class="cls-1" cx="38.7" cy="98.6" r="2.7"/><circle class="cls-1" cx="38.7" cy="79.4" r="2.7"/><circle class="cls-1" cx="38.7" cy="60.2" r="2.7"/><circle class="cls-1" cx="38.7" cy="21.9" r="2.7"/><circle class="cls-1" cx="38.7" cy="2.7" r="2.7"/><circle class="cls-1" cx="38.7" cy="41" r="2.7"/><circle class="cls-1" cx="56.8" cy="194.5" r="2.7"/><circle class="cls-1" cx="56.8" cy="175.3" r="2.7"/><circle class="cls-1" cx="56.8" cy="156.1" r="2.7"/><circle class="cls-1" cx="56.8" cy="136.9" r="2.7"/><circle class="cls-1" cx="56.8" cy="117.8" r="2.7"/><circle class="cls-1" cx="56.8" cy="98.6" r="2.7"/><circle class="cls-1" cx="56.8" cy="79.4" r="2.7"/><circle class="cls-1" cx="56.8" cy="60.2" r="2.7"/><circle class="cls-1" cx="56.8" cy="21.9" r="2.7"/><circle class="cls-1" cx="56.8" cy="2.7" r="2.7"/><circle class="cls-1" cx="56.8" cy="41" r="2.7"/><circle class="cls-1" cx="74.8" cy="194.5" r="2.7"/><circle class="cls-1" cx="74.8" cy="175.3" r="2.7"/><circle class="cls-1" cx="74.8" cy="156.1" r="2.7"/><circle class="cls-1" cx="74.8" cy="136.9" r="2.7"/><circle class="cls-1" cx="74.8" cy="117.8" r="2.7"/><circle class="cls-1" cx="74.8" cy="98.6" r="2.7"/><circle class="cls-1" cx="74.8" cy="79.4" r="2.7"/><circle class="cls-1" cx="74.8" cy="60.2" r="2.7"/><circle class="cls-1" cx="74.8" cy="21.9" r="2.7"/><circle class="cls-1" cx="74.8" cy="2.7" r="2.7"/><circle class="cls-1" cx="74.8" cy="41" r="2.7"/><circle class="cls-1" cx="92.3" cy="194.5" r="2.7"/><circle class="cls-1" cx="92.3" cy="175.3" r="2.7"/><circle class="cls-1" cx="92.3" cy="156.1" r="2.7"/><circle class="cls-1" cx="92.3" cy="136.9" r="2.7"/><circle class="cls-1" cx="92.3" cy="117.8" r="2.7"/><circle class="cls-1" cx="92.3" cy="98.6" r="2.7"/><circle class="cls-1" cx="92.3" cy="79.4" r="2.7"/><circle class="cls-1" cx="92.3" cy="60.2" r="2.7"/><circle class="cls-1" cx="92.3" cy="21.9" r="2.7"/><circle class="cls-1" cx="92.3" cy="2.7" r="2.7"/><circle class="cls-1" cx="92.3" cy="41" r="2.7"/><circle class="cls-1" cx="110.3" cy="194.5" r="2.7"/><circle class="cls-1" cx="110.3" cy="175.3" r="2.7"/><circle class="cls-1" cx="110.3" cy="156.1" r="2.7"/><circle class="cls-1" cx="110.3" cy="136.9" r="2.7"/><circle class="cls-1" cx="110.3" cy="117.8" r="2.7"/><circle class="cls-1" cx="110.3" cy="98.6" r="2.7"/><circle class="cls-1" cx="110.3" cy="79.4" r="2.7"/><circle class="cls-1" cx="110.3" cy="60.2" r="2.7"/><circle class="cls-1" cx="110.3" cy="21.9" r="2.7"/><circle class="cls-1" cx="110.3" cy="2.7" r="2.7"/><circle class="cls-1" cx="110.3" cy="41" r="2.7"/><circle class="cls-1" cx="128.3" cy="194.5" r="2.7"/><circle class="cls-1" cx="128.3" cy="175.3" r="2.7"/><circle class="cls-1" cx="128.3" cy="156.1" r="2.7"/><circle class="cls-1" cx="128.3" cy="136.9" r="2.7"/><circle class="cls-1" cx="128.3" cy="117.8" r="2.7"/><circle class="cls-1" cx="128.3" cy="98.6" r="2.7"/><circle class="cls-1" cx="128.3" cy="79.4" r="2.7"/><circle class="cls-1" cx="128.3" cy="60.2" r="2.7"/><circle class="cls-1" cx="128.3" cy="21.9" r="2.7"/><circle class="cls-1" cx="128.3" cy="2.7" r="2.7"/><circle class="cls-1" cx="128.3" cy="41" r="2.7"/><circle class="cls-1" cx="146.4" cy="194.5" r="2.7"/><circle class="cls-1" cx="146.4" cy="175.3" r="2.7"/><circle class="cls-1" cx="146.4" cy="156.1" r="2.7"/><circle class="cls-1" cx="146.4" cy="136.9" r="2.7"/><circle class="cls-1" cx="146.4" cy="117.8" r="2.7"/><circle class="cls-1" cx="146.4" cy="98.6" r="2.7"/><circle class="cls-1" cx="146.4" cy="79.4" r="2.7"/><circle class="cls-1" cx="146.4" cy="60.2" r="2.7"/><circle class="cls-1" cx="146.4" cy="21.9" r="2.7"/><circle class="cls-1" cx="146.4" cy="2.7" r="2.7"/><circle class="cls-1" cx="146.4" cy="41" r="2.7"/><circle class="cls-1" cx="164.4" cy="194.5" r="2.7"/><circle class="cls-1" cx="164.4" cy="175.3" r="2.7"/><circle class="cls-1" cx="164.4" cy="156.1" r="2.7"/><circle class="cls-1" cx="164.4" cy="136.9" r="2.7"/><circle class="cls-1" cx="164.4" cy="117.8" r="2.7"/><circle class="cls-1" cx="164.4" cy="98.6" r="2.7"/><circle class="cls-1" cx="164.4" cy="79.4" r="2.7"/><circle class="cls-1" cx="164.4" cy="60.2" r="2.7"/><circle class="cls-1" cx="164.4" cy="21.9" r="2.7"/><circle class="cls-1" cx="164.4" cy="2.7" r="2.7"/><circle class="cls-1" cx="164.4" cy="41" r="2.7"/><circle class="cls-1" cx="182.4" cy="194.5" r="2.7"/><circle class="cls-1" cx="182.4" cy="175.3" r="2.7"/><circle class="cls-1" cx="182.4" cy="156.1" r="2.7"/><circle class="cls-1" cx="182.4" cy="136.9" r="2.7"/><circle class="cls-1" cx="182.4" cy="117.8" r="2.7"/><circle class="cls-1" cx="182.4" cy="98.6" r="2.7"/><circle class="cls-1" cx="182.4" cy="79.4" r="2.7"/><circle class="cls-1" cx="182.4" cy="60.2" r="2.7"/><circle class="cls-1" cx="182.4" cy="21.9" r="2.7"/><circle class="cls-1" cx="182.4" cy="2.7" r="2.7"/><circle class="cls-1" cx="182.4" cy="41" r="2.7"/><circle class="cls-1" cx="200.5" cy="194.5" r="2.7"/><circle class="cls-1" cx="200.5" cy="175.3" r="2.7"/><circle class="cls-1" cx="200.5" cy="156.1" r="2.7"/><circle class="cls-1" cx="200.5" cy="136.9" r="2.7"/><circle class="cls-1" cx="200.5" cy="117.8" r="2.7"/><circle class="cls-1" cx="200.5" cy="98.6" r="2.7"/><circle class="cls-1" cx="200.5" cy="79.4" r="2.7"/><circle class="cls-1" cx="200.5" cy="60.2" r="2.7"/><circle class="cls-1" cx="200.5" cy="21.9" r="2.7"/><circle class="cls-1" cx="200.5" cy="2.7" r="2.7"/><circle class="cls-1" cx="200.5" cy="41" r="2.7"/><circle class="cls-1" cx="218.5" cy="194.5" r="2.7"/><circle class="cls-1" cx="218.5" cy="175.3" r="2.7"/><circle class="cls-1" cx="218.5" cy="156.1" r="2.7"/><circle class="cls-1" cx="218.5" cy="136.9" r="2.7"/><circle class="cls-1" cx="218.5" cy="117.8" r="2.7"/><circle class="cls-1" cx="218.5" cy="98.6" r="2.7"/><circle class="cls-1" cx="218.5" cy="79.4" r="2.7"/><circle class="cls-1" cx="218.5" cy="60.2" r="2.7"/><circle class="cls-1" cx="218.5" cy="21.9" r="2.7"/><circle class="cls-1" cx="218.5" cy="2.7" r="2.7"/><circle class="cls-1" cx="218.5" cy="41" r="2.7"/></g></g></svg>