<?xml version="1.0" encoding="UTF-8"?>
<svg width="128px" height="464px" viewBox="0 0 128 464" xmlns="http://www.w3.org/2000/svg" xmlns:xlink="http://www.w3.org/1999/xlink" version="1.1">
 <!-- Generated by Pixelmator Pro 2.0.1 -->
 <path id="Path-copy" d="M111.266 55.464 L94.768 57.316 C93.531 53.515 87.087 46.156 75 44.264 75.616 39.226 78.332 37.452 82.698 37.831 84.353 37.972 88.832 38.859 88.832 38.859 L89.803 41.908 91.261 41.683 C91.261 41.683 91.424 27.495 91.091 12.979 90.99 8.523 98.507 7.868 98.671 12.861 98.756 15.301 99.14 21.497 99.546 27.738 107.826 28.353 113.582 31.268 118.1 36.294 117.061 40.971 114.864 54.809 114.864 54.809 Z M101.099 18.52 C105.189 13.759 103.184 4.146 94.887 4.146 86.364 4.146 84.116 14.312 88.962 18.898 L86.703 21.333 C79.033 15.08 82.184 0.26 94.921 0.26 107.301 0.26 110.074 14.38 103.517 20.881 Z" fill="#ffffff" fill-opacity="1" stroke="none"/>
 <path id="Path" d="M105 73 C114.483 464.671 0 463 0 463" fill="none" stroke="#ffffff" stroke-width="1" stroke-opacity="1" stroke-linejoin="round"/>
</svg>
