<svg xmlns="http://www.w3.org/2000/svg" viewBox="0 0 286.1 85.9"><defs><style>.cls-1{fill:#ffc420;}</style></defs><g id="Layer_2" data-name="Layer 2"><g id="Illu"><path class="cls-1" d="M203.8,85.9c-30.2,0-46.4-11.3-62-22.2l-8.5-5.8c-3.6-2.4-6.9-4.8-10-7.1C111.2,42,102.5,35.7,82.1,35.7H82c-10.8,0-28.5,5-51.2,29.2a17.8,17.8,0,0,1-25.2.8,17.9,17.9,0,0,1-.8-25.2C29.6,14,56.3,0,82,0h.1c32,0,48.1,11.7,62.2,22,2.9,2.2,5.7,4.2,8.5,6s6.4,4.4,9.4,6.5c13.6,9.5,22.6,15.7,41.6,15.7h.2c22.7,0,40.4-13.9,51.2-25.6a17.8,17.8,0,0,1,26.1,24.3c-22.4,24.1-49.1,36.9-77.2,37Z"/></g></g></svg>