<?xml version="1.0" encoding="utf-8"?>
<!-- Generator: Adobe Illustrator 24.1.2, SVG Export Plug-In . SVG Version: 6.00 Build 0)  -->
<svg version="1.1" id="Layer_1" xmlns="http://www.w3.org/2000/svg" xmlns:xlink="http://www.w3.org/1999/xlink" x="0px" y="0px"
	 viewBox="0 0 516.8 416.2" style="enable-background:new 0 0 516.8 416.2;" xml:space="preserve">
<style type="text/css">
	.st0{fill:#FFC420;}
	.st1{fill:none;stroke:#25E9A4;stroke-width:21.142;stroke-linecap:round;stroke-miterlimit:10;}
	.st2{fill:#F7C8A8;}
	.st3{fill:#EF6F5D;}
	.st4{fill:#F4CAB8;}
	.st5{fill:#966A57;}
	.st6{fill:#F9D2BB;}
	.st7{fill:#221F20;}
	.st8{fill:#A27867;}
	.st9{fill:#FFFFFF;}
	.st10{fill:none;}
	.st11{fill:#ED5030;}
	.st12{fill:none;stroke:#F4B28D;stroke-width:0.328;stroke-linecap:round;stroke-linejoin:round;}
	.st13{fill:#F4C19F;}
	.st14{fill:#F2C8B1;}
	.st15{fill:#000C34;}
	.st16{fill:#2EB785;}
	.st17{fill:#3278FB;}
	.st18{fill:#9A9EA6;}
	.st19{fill:#ADB0B4;}
	.st20{fill:#A7A9AE;}
	.st21{fill:#C3C7CB;}
	.st22{fill:#0C0775;}
	.st23{fill:#0B0899;}
	.st24{fill:#F4AEB7;}
	.st25{fill:#2B3556;}
	.st26{fill:#F28F8A;}
	.st27{fill:none;stroke:#FFFFFF;stroke-width:0.872;stroke-linecap:round;stroke-linejoin:round;}
	.st28{fill:#B37F68;}
	.st29{fill:#15845D;}
	.st30{fill:#D5D7DD;}
	.st31{fill:#1062FB;stroke:#555D78;stroke-width:0.523;stroke-linecap:round;stroke-linejoin:round;}
	.st32{fill:none;stroke:#2B3556;stroke-width:0.523;stroke-linecap:round;stroke-linejoin:round;}
	.st33{fill:#524138;}
	.st34{fill:#1A171A;}
	.st35{fill:#100F12;}
	.st36{fill:none;stroke:#524138;stroke-width:0.245;stroke-miterlimit:10;}
	.st37{fill:none;stroke:#FDB714;stroke-width:0.786;stroke-miterlimit:10;}
	.st38{fill:none;stroke:#FDB714;stroke-width:0.786;stroke-linecap:round;stroke-linejoin:round;}
	.st39{fill:none;stroke:#FDB714;stroke-width:0.932;stroke-linecap:round;stroke-linejoin:round;}
	.st40{fill-rule:evenodd;clip-rule:evenodd;fill:#2B3556;}
	.st41{fill-rule:evenodd;clip-rule:evenodd;fill:#B37F68;}
	.st42{fill-rule:evenodd;clip-rule:evenodd;fill:#0B5DE0;}
	.st43{fill:#BE897C;}
	.st44{fill-rule:evenodd;clip-rule:evenodd;fill:#1062FB;}
	.st45{fill:#121115;}
	.st46{fill:#58595B;}
	.st47{clip-path:url(#SVGID_2_);}
	.st48{fill:#00ADEE;}
	.st49{font-family:'DINPro-Medium';}
	.st50{font-size:10.445px;}
	.st51{fill:none;stroke:#2B3556;stroke-width:0.514;stroke-linecap:round;stroke-linejoin:round;}
	.st52{fill:#1062FB;}
	.st53{fill:none;stroke:#FFFFFF;stroke-width:1.777;stroke-linecap:round;stroke-linejoin:round;}
	.st54{fill:none;stroke:#FFFFFF;stroke-width:1.777;stroke-linejoin:round;}
	.st55{fill:#FFFFFF;stroke:#FFFFFF;stroke-width:0.574;stroke-miterlimit:10;}
	.st56{fill:none;stroke:#FFFFFF;stroke-width:1.721;stroke-linecap:round;stroke-linejoin:round;}
	.st57{fill:none;stroke:#FFFFFF;stroke-width:1.721;stroke-linejoin:round;}
</style>
<g transform="translate(-772.999 -280.855)">
	<g transform="translate(1001.348 588.291) rotate(-90)">
		<circle class="st0" cx="2.8" cy="2.8" r="2.8"/>
		<circle class="st0" cx="22.9" cy="2.8" r="2.8"/>
		<circle class="st0" cx="43" cy="2.8" r="2.8"/>
		<circle class="st0" cx="63.1" cy="2.8" r="2.8"/>
		<circle class="st0" cx="83.2" cy="2.8" r="2.8"/>
		<circle class="st0" cx="103.3" cy="2.8" r="2.8"/>
		<circle class="st0" cx="123.4" cy="2.8" r="2.8"/>
		<circle class="st0" cx="143.5" cy="2.8" r="2.8"/>
		<circle class="st0" cx="183.7" cy="2.8" r="2.8"/>
		<circle class="st0" cx="203.7" cy="2.8" r="2.8"/>
		<circle class="st0" cx="163.6" cy="2.8" r="2.8"/>
		<circle class="st0" cx="2.8" cy="21.7" r="2.8"/>
		<circle class="st0" cx="22.9" cy="21.7" r="2.8"/>
		<circle class="st0" cx="43" cy="21.7" r="2.8"/>
		<circle class="st0" cx="63.1" cy="21.7" r="2.8"/>
		<circle class="st0" cx="83.2" cy="21.7" r="2.8"/>
		<circle class="st0" cx="103.3" cy="21.7" r="2.8"/>
		<circle class="st0" cx="123.4" cy="21.7" r="2.8"/>
		<circle class="st0" cx="143.5" cy="21.7" r="2.8"/>
		<circle class="st0" cx="183.7" cy="21.7" r="2.8"/>
		<circle class="st0" cx="203.7" cy="21.7" r="2.8"/>
		<circle class="st0" cx="163.6" cy="21.7" r="2.8"/>
		<circle class="st0" cx="2.8" cy="40.6" r="2.8"/>
		<circle class="st0" cx="22.9" cy="40.6" r="2.8"/>
		<circle class="st0" cx="43" cy="40.6" r="2.8"/>
		<circle class="st0" cx="63.1" cy="40.6" r="2.8"/>
		<circle class="st0" cx="83.2" cy="40.6" r="2.8"/>
		<circle class="st0" cx="103.3" cy="40.6" r="2.8"/>
		<circle class="st0" cx="123.4" cy="40.6" r="2.8"/>
		<circle class="st0" cx="143.5" cy="40.6" r="2.8"/>
		<circle class="st0" cx="183.7" cy="40.6" r="2.8"/>
		<circle class="st0" cx="203.7" cy="40.6" r="2.8"/>
		<circle class="st0" cx="163.6" cy="40.6" r="2.8"/>
		<circle class="st0" cx="2.8" cy="59.5" r="2.8"/>
		<circle class="st0" cx="22.9" cy="59.5" r="2.8"/>
		<circle class="st0" cx="43" cy="59.5" r="2.8"/>
		<circle class="st0" cx="63.1" cy="59.5" r="2.8"/>
		<circle class="st0" cx="83.2" cy="59.5" r="2.8"/>
		<circle class="st0" cx="103.3" cy="59.5" r="2.8"/>
		<circle class="st0" cx="123.4" cy="59.5" r="2.8"/>
		<circle class="st0" cx="143.5" cy="59.5" r="2.8"/>
		<circle class="st0" cx="183.7" cy="59.5" r="2.8"/>
		<circle class="st0" cx="203.7" cy="59.5" r="2.8"/>
		<circle class="st0" cx="163.6" cy="59.5" r="2.8"/>
		<circle class="st0" cx="2.8" cy="78.4" r="2.8"/>
		<circle class="st0" cx="22.9" cy="78.4" r="2.8"/>
		<circle class="st0" cx="43" cy="78.4" r="2.8"/>
		<circle class="st0" cx="63.1" cy="78.4" r="2.8"/>
		<circle class="st0" cx="83.2" cy="78.4" r="2.8"/>
		<circle class="st0" cx="103.3" cy="78.4" r="2.8"/>
		<circle class="st0" cx="123.4" cy="78.4" r="2.8"/>
		<circle class="st0" cx="143.5" cy="78.4" r="2.8"/>
		<circle class="st0" cx="183.7" cy="78.4" r="2.8"/>
		<circle class="st0" cx="203.7" cy="78.4" r="2.8"/>
		<circle class="st0" cx="163.6" cy="78.4" r="2.8"/>
		<circle class="st0" cx="2.8" cy="97.3" r="2.8"/>
		<circle class="st0" cx="22.9" cy="97.3" r="2.8"/>
		<circle class="st0" cx="43" cy="97.3" r="2.8"/>
		<circle class="st0" cx="63.1" cy="97.3" r="2.8"/>
		<circle class="st0" cx="83.2" cy="97.3" r="2.8"/>
		<circle class="st0" cx="103.3" cy="97.3" r="2.8"/>
		<circle class="st0" cx="123.4" cy="97.3" r="2.8"/>
		<circle class="st0" cx="143.5" cy="97.3" r="2.8"/>
		<circle class="st0" cx="183.7" cy="97.3" r="2.8"/>
		<circle class="st0" cx="203.7" cy="97.3" r="2.8"/>
		<circle class="st0" cx="163.6" cy="97.3" r="2.8"/>
		<circle class="st0" cx="2.8" cy="116.2" r="2.8"/>
		<circle class="st0" cx="22.9" cy="116.2" r="2.8"/>
		<circle class="st0" cx="43" cy="116.2" r="2.8"/>
		<circle class="st0" cx="63.1" cy="116.2" r="2.8"/>
		<circle class="st0" cx="83.2" cy="116.2" r="2.8"/>
		<circle class="st0" cx="103.3" cy="116.2" r="2.8"/>
		<circle class="st0" cx="123.4" cy="116.2" r="2.8"/>
		<circle class="st0" cx="143.5" cy="116.2" r="2.8"/>
		<circle class="st0" cx="183.7" cy="116.2" r="2.8"/>
		<circle class="st0" cx="203.7" cy="116.2" r="2.8"/>
		<circle class="st0" cx="163.6" cy="116.2" r="2.8"/>
		<circle class="st0" cx="2.8" cy="135.1" r="2.8"/>
		<circle class="st0" cx="22.9" cy="135.1" r="2.8"/>
		<circle class="st0" cx="43" cy="135.1" r="2.8"/>
		<circle class="st0" cx="63.1" cy="135.1" r="2.8"/>
		<circle class="st0" cx="83.2" cy="135.1" r="2.8"/>
		<circle class="st0" cx="103.3" cy="135.1" r="2.8"/>
		<circle class="st0" cx="123.4" cy="135.1" r="2.8"/>
		<circle class="st0" cx="143.5" cy="135.1" r="2.8"/>
		<circle class="st0" cx="183.7" cy="135.1" r="2.8"/>
		<circle class="st0" cx="203.7" cy="135.1" r="2.8"/>
		<circle class="st0" cx="163.6" cy="135.1" r="2.8"/>
		<circle class="st0" cx="2.8" cy="153.3" r="2.8"/>
		<circle class="st0" cx="22.9" cy="153.3" r="2.8"/>
		<circle class="st0" cx="43" cy="153.3" r="2.8"/>
		<circle class="st0" cx="63.1" cy="153.3" r="2.8"/>
		<circle class="st0" cx="83.2" cy="153.3" r="2.8"/>
		<circle class="st0" cx="103.3" cy="153.3" r="2.8"/>
		<circle class="st0" cx="123.4" cy="153.3" r="2.8"/>
		<circle class="st0" cx="143.5" cy="153.3" r="2.8"/>
		<circle class="st0" cx="183.7" cy="153.3" r="2.8"/>
		<circle class="st0" cx="203.7" cy="153.3" r="2.8"/>
		<circle class="st0" cx="163.6" cy="153.3" r="2.8"/>
		<circle class="st0" cx="2.8" cy="172.2" r="2.8"/>
		<circle class="st0" cx="22.9" cy="172.2" r="2.8"/>
		<circle class="st0" cx="43" cy="172.2" r="2.8"/>
		<circle class="st0" cx="63.1" cy="172.2" r="2.8"/>
		<circle class="st0" cx="83.2" cy="172.2" r="2.8"/>
		<circle class="st0" cx="103.3" cy="172.2" r="2.8"/>
		<circle class="st0" cx="123.4" cy="172.2" r="2.8"/>
		<circle class="st0" cx="143.5" cy="172.2" r="2.8"/>
		<circle class="st0" cx="183.7" cy="172.2" r="2.8"/>
		<circle class="st0" cx="203.7" cy="172.2" r="2.8"/>
		<circle class="st0" cx="163.6" cy="172.2" r="2.8"/>
		<circle class="st0" cx="2.8" cy="191.1" r="2.8"/>
		<circle class="st0" cx="22.9" cy="191.1" r="2.8"/>
		<circle class="st0" cx="43" cy="191.1" r="2.8"/>
		<circle class="st0" cx="63.1" cy="191.1" r="2.8"/>
		<circle class="st0" cx="83.2" cy="191.1" r="2.8"/>
		<circle class="st0" cx="103.3" cy="191.1" r="2.8"/>
		<circle class="st0" cx="123.4" cy="191.1" r="2.8"/>
		<circle class="st0" cx="143.5" cy="191.1" r="2.8"/>
		<circle class="st0" cx="183.7" cy="191.1" r="2.8"/>
		<circle class="st0" cx="203.7" cy="191.1" r="2.8"/>
		<circle class="st0" cx="163.6" cy="191.1" r="2.8"/>
		<circle class="st0" cx="2.8" cy="210" r="2.8"/>
		<circle class="st0" cx="22.9" cy="210" r="2.8"/>
		<circle class="st0" cx="43" cy="210" r="2.8"/>
		<circle class="st0" cx="63.1" cy="210" r="2.8"/>
		<circle class="st0" cx="83.2" cy="210" r="2.8"/>
		<circle class="st0" cx="103.3" cy="210" r="2.8"/>
		<circle class="st0" cx="123.4" cy="210" r="2.8"/>
		<circle class="st0" cx="143.5" cy="210" r="2.8"/>
		<circle class="st0" cx="183.7" cy="210" r="2.8"/>
		<circle class="st0" cx="203.7" cy="210" r="2.8"/>
		<circle class="st0" cx="163.6" cy="210" r="2.8"/>
		<circle class="st0" cx="2.8" cy="228.9" r="2.8"/>
		<circle class="st0" cx="22.9" cy="228.9" r="2.8"/>
		<circle class="st0" cx="43" cy="228.9" r="2.8"/>
		<circle class="st0" cx="63.1" cy="228.9" r="2.8"/>
		<circle class="st0" cx="83.2" cy="228.9" r="2.8"/>
		<circle class="st0" cx="103.3" cy="228.9" r="2.8"/>
		<circle class="st0" cx="123.4" cy="228.9" r="2.8"/>
		<circle class="st0" cx="143.5" cy="228.9" r="2.8"/>
		<circle class="st0" cx="183.7" cy="228.9" r="2.8"/>
		<circle class="st0" cx="203.7" cy="228.9" r="2.8"/>
		<circle class="st0" cx="163.6" cy="228.9" r="2.8"/>
		<circle class="st0" cx="2.8" cy="247.8" r="2.8"/>
		<circle class="st0" cx="22.9" cy="247.8" r="2.8"/>
		<circle class="st0" cx="43" cy="247.8" r="2.8"/>
		<circle class="st0" cx="63.1" cy="247.8" r="2.8"/>
		<circle class="st0" cx="83.2" cy="247.8" r="2.8"/>
		<circle class="st0" cx="103.3" cy="247.8" r="2.8"/>
		<circle class="st0" cx="123.4" cy="247.8" r="2.8"/>
		<circle class="st0" cx="143.5" cy="247.8" r="2.8"/>
		<circle class="st0" cx="183.7" cy="247.8" r="2.8"/>
		<circle class="st0" cx="203.7" cy="247.8" r="2.8"/>
		<circle class="st0" cx="163.6" cy="247.8" r="2.8"/>
		<circle class="st0" cx="2.8" cy="266.7" r="2.8"/>
		<circle class="st0" cx="22.9" cy="266.7" r="2.8"/>
		<circle class="st0" cx="43" cy="266.7" r="2.8"/>
		
			<ellipse transform="matrix(-0.9978 -6.651781e-02 6.651781e-02 -0.9978 108.2952 537.0117)" class="st0" cx="63.1" cy="266.7" rx="2.8" ry="2.8"/>
		<circle class="st0" cx="83.2" cy="266.7" r="2.8"/>
		<circle class="st0" cx="103.3" cy="266.7" r="2.8"/>
		<circle class="st0" cx="123.4" cy="266.7" r="2.8"/>
		<circle class="st0" cx="143.5" cy="266.7" r="2.8"/>
		<circle class="st0" cx="183.7" cy="266.7" r="2.8"/>
		<circle class="st0" cx="203.7" cy="266.7" r="2.8"/>
		<circle class="st0" cx="163.6" cy="266.7" r="2.8"/>
		<circle class="st0" cx="2.8" cy="285.6" r="2.8"/>
		<circle class="st0" cx="22.9" cy="285.6" r="2.8"/>
		<circle class="st0" cx="43" cy="285.6" r="2.8"/>
		
			<ellipse transform="matrix(-0.9978 -6.651785e-02 6.651785e-02 -0.9978 107.0362 574.7697)" class="st0" cx="63.1" cy="285.6" rx="2.8" ry="2.8"/>
		<circle class="st0" cx="83.2" cy="285.6" r="2.8"/>
		<circle class="st0" cx="103.3" cy="285.6" r="2.8"/>
		<circle class="st0" cx="123.4" cy="285.6" r="2.8"/>
		<circle class="st0" cx="143.5" cy="285.6" r="2.8"/>
		<circle class="st0" cx="183.7" cy="285.6" r="2.8"/>
		<circle class="st0" cx="203.7" cy="285.6" r="2.8"/>
		<circle class="st0" cx="163.6" cy="285.6" r="2.8"/>
	</g>
	<g transform="translate(658.488 237.268)">
		<g transform="translate(114.511 43.588)">
			<line class="st1" x1="139.7" y1="281.8" x2="14.9" y2="281.8"/>
			<path class="st2" d="M120.2,342.2l-2.5,25.4l-10.3-6.6l-0.3-24.1L120.2,342.2z"/>
			<path class="st3" d="M73.8,127.2c7.2-1.8,14.8-1.6,22,0.5c1.5,5.4-1.1,6.2-1.1,6.2L73.8,133V127.2z"/>
			<path class="st2" d="M67.8,340.6L65.3,366l11.3-4.4l5-23.6L67.8,340.6z"/>
			<g transform="translate(31.703 138.419)">
				<g transform="translate(0 0.064)">
					<path class="st2" d="M27.5,0.5c-6.7-1.9-13.7,1.9-15.6,8.6c-0.1,0.2-0.1,0.5-0.2,0.7L0.2,63.2c-1,3.9,1.2,7.8,5.1,9
						c3.8,1.1,7.9-0.9,9.3-4.5L35,17.2c2.7-6.1,0-13.3-6.1-16C28.5,0.8,28,0.7,27.5,0.5z"/>
					<circle class="st2" cx="7.6" cy="65" r="7.6"/>
				</g>
				<circle class="st2" cx="23.8" cy="12.3" r="12.3"/>
			</g>
			<g transform="translate(101.901 135.838)">
				<g transform="translate(0.135)">
					<path class="st2" d="M5.5,2c-5.8,3.9-7.3,11.7-3.4,17.5c0.1,0.2,0.3,0.4,0.4,0.6L36,63.2c2.3,3.2,6.8,4.1,10.2,1.9
						c3.3-2.2,4.4-6.6,2.5-10.1L23.1,6.8c-2.9-6-10.2-8.5-16.2-5.6C6.4,1.5,6,1.7,5.5,2z"/>
					<circle class="st2" cx="42.2" cy="58.7" r="7.6"/>
				</g>
				<circle class="st2" cx="12.3" cy="12.3" r="12.3"/>
			</g>
			<g transform="translate(43.243 119.837)">
				<g transform="translate(0 12.025)">
					<g transform="translate(11.047)">
						<path class="st2" d="M57.9,24.3c0,25.3-12.4,51.8-27.6,51.8S2.7,49.5,2.7,24.3S15,0,30.3,0S57.9-1,57.9,24.3z"/>
						<circle class="st2" cx="30.3" cy="68" r="21.7"/>
						<g transform="translate(0 55.36)">
							<path class="st2" d="M0,43.6C0,15.8,13.6,0,30.4,0s30.4,15.8,30.4,43.6S47.2,70.3,30.4,70.3S0,71.4,0,43.6z"/>
							<circle class="st2" cx="46" cy="62.6" r="12.2"/>
							<circle class="st2" cx="14.3" cy="62.3" r="12.2"/>
						</g>
					</g>
					<circle class="st2" cx="12.3" cy="18.8" r="12.3"/>
					<circle class="st2" cx="70.9" cy="16.3" r="12.3"/>
				</g>
				<g transform="translate(23.436)">
					<path class="st4" d="M32.2,13.9c-6.7-1.9-7-5.9-7-6.6c0.1-4-3.1-7.3-7.1-7.4S10.8,3,10.7,7c0,0.1,0,0.2,0,0.3
						c0,7.1-13.2,4.8-10.2,9.7S12,31.4,22,26.8C26.7,24.5,37.4,15.3,32.2,13.9z"/>
					<circle class="st4" cx="17.9" cy="7.3" r="7.3"/>
					<circle class="st4" cx="17.9" cy="7.3" r="7.3"/>
				</g>
			</g>
			<g transform="translate(52.523 51.527)">
				<path class="st5" d="M10.9,10.6c-4.4,8-16.5,34.7-8,61.4c2.1,6.5,55.7,4.6,58.9-0.3c10.2-15.5-5-55.6-8-60.6
					C49.6,3.9,16.2,1.2,10.9,10.6z"/>
				<g transform="translate(24.891 66.394)">
					<circle class="st4" cx="7.4" cy="9.2" r="7.3"/>
					<path class="st4" d="M14.6,9.2L14.6,9.2L14.5,0L0,0.2l0.1,9.1l0,0c0.1,4,3.4,7.2,7.4,7.1C11.4,16.2,14.5,13.1,14.6,9.2
						L14.6,9.2z"/>
				</g>
				<path class="st5" d="M8.5,37.5l-1-2.8l1-5L57.6,34l-1.3,4.3L8.5,37.5z"/>
				<path class="st6" d="M52.6,48.9l-1.2-0.4c-1.6-0.5-2.4-2.1-2-3.7l2.1-6.9c0.5-1.6,2.1-2.4,3.7-2l1.2,0.4c1.6,0.5,2.4,2.1,2,3.7
					l-2.1,6.9C55.9,48.5,54.2,49.4,52.6,48.9z"/>
				<path class="st6" d="M53.8,46.1c0-4.4,2.4-17.4,2.4-17.4c0-13.1-10.7-23.6-23.8-23.6l0,0l0,0C19.3,5.2,9.1,16.1,9.2,29.2
					l2.2,17.1c0.1,13.1,9.7,23.6,21.3,23.6C46.3,69.9,53.9,56.3,53.8,46.1z"/>
				<path class="st6" d="M8.3,46.2c0.4,1.9,2.2,3.1,4.1,2.7l0,0c1.9-0.4,3.1-2.2,2.7-4.1l-1.4-7c-0.4-1.9-2.2-3.1-4.1-2.7l0,0l0,0
					c-1.9,0.4-3.1,2.2-2.7,4.1l0,0L8.3,46.2z"/>
				<path class="st7" d="M41.9,40.9c0,0.9,0.7,1.6,1.6,1.6s1.6-0.7,1.6-1.6c0-0.9-0.7-1.6-1.6-1.6l0,0C42.6,39.3,41.9,40,41.9,40.9"
					/>
				<path class="st7" d="M21.1,40.9c0,0.9,0.7,1.6,1.6,1.6s1.6-0.7,1.6-1.6c0-0.9-0.7-1.6-1.6-1.6l0,0C21.8,39.3,21.1,40,21.1,40.9"
					/>
				<path class="st8" d="M29.5,54l2.6-12.1c0.1-0.1,0.2-0.2,0.4-0.2s0.2,0.2,0.2,0.4l0,0l-2.4,11.5l4.5,0.7c0.2,0,0.3,0.2,0.2,0.3
					l0,0c0,0.2-0.2,0.3-0.3,0.2l0,0L29.5,54z"/>
				<path class="st9" d="M40.4,58.9c-1,2.9-3.7,5-6.8,5.2c-3.4,0.3-6.4-1.3-7.5-3.7L40.4,58.9z"/>
				<path class="st5" d="M9.5,35.1c0.5,0.5,1.1,0.8,1.8,0.8c6-0.8,11.8-2.4,17.4-4.6c6.6-3.2,12.2-8,16.2-14.1
					c2.8,4.2,4.8,8.9,5.9,13.8c1.3,5.7,3.2,5.1,4.1,5l3.1-1c0.3-0.4,2.4,0.1,2.5-0.9C61.7,16.6,51.9,0,32.5,0C15,0,2.4,15.4,4,34.1
					c0,0.3,2.9-2.2,3.1-1.9L9.5,35.1z"/>
			</g>
			<g transform="translate(136.188 134.577)">
				<path class="st2" d="M32.5,5.6c0,0-15.2,52.4-16.8,56.6c-1.6,4.2-6.3,6.3-10.4,4.7C1.1,65.3-1,60.8,0.5,56.6
					C2.1,52.4,24.7,2.7,24.7,2.7"/>
				<circle class="st2" cx="28.6" cy="4.1" r="4.1"/>
				<circle class="st10" cx="7.9" cy="59.9" r="7.6"/>
			</g>
			<g transform="translate(0 196.03)">
				<g transform="translate(0 61.508)">
					<circle class="st2" cx="30.6" cy="4.1" r="4.1"/>
					<g transform="translate(0 2.946)">
						<path class="st2" d="M33.6,3.4c0,0,1.9,4.8,0.5,9s-5.6-1.9-5.6-1.9l-15.6,3.1l5.4-4.5l6.3-7.6"/>
						<path class="st2" d="M24.2,10c-1.3,0.5-2.6,1.3-4.7,0.6c-2.5-0.8-5.9,0.5-5.4-1c1.2-3.4,11.4-10,13.8-8.9
							C31.2,2.2,28,8.5,24.2,10z"/>
						<g transform="translate(0 5.096)">
							<g transform="translate(3.635 0.722)">
								<path class="st2" d="M6.6,4.3L6.6,4.3C5.4,4.7,4.8,6,5.2,7.2c0.2,0.6,0.6,1,1.2,1.3c0.6,0.2,1.2,0.3,1.8,0l0,0l5.6-2.1l0,0
									c1.2-0.5,1.7-1.8,1.2-3c-0.2-0.5-0.6-0.9-1.1-1.2C13.4,2,12.7,2,12.2,2.1l0,0L6.6,4.3z"/>
							</g>
							<g transform="translate(10.028)">
								<path class="st2" d="M6,2.8L6,2.8C5.5,2.9,5.2,3.2,5,3.7C4.5,4.8,4.8,6.1,5.7,6.8c0.4,0.4,1,0.5,1.5,0.4l0,0l4.6-1.3
									l4.8-1.1c0.4-0.1,0.8-0.5,0.9-0.9c0.5-1,0.2-2.8-0.8-3.2C15,0.2,6,2.8,6,2.8z"/>
							</g>
							<g transform="translate(0 2.104)">
								<path class="st2" d="M6.9,6.8L6.9,6.8c-0.3,0.4-1.3,2-1.3,2s3.7,2.7,5.8-0.5l1.5-1.9l0.5-0.8c0.3-0.4-0.1-0.1-0.1-0.7
									c-0.1-1.3-1.2-2.2-2.5-2.1l0,0c-0.6,0.1-1.2,0.4-1.6,0.8l0,0L6.9,6.8z"/>
							</g>
						</g>
					</g>
				</g>
				<g transform="translate(23.38)">
					<path class="st2" d="M3.4,63.9c0,0,4.1-53,4.7-57.3s4.7-7.3,9-6.6c4.3,0.6,7.3,4.7,6.6,9l0,0C23,13.2,11.4,65.1,11.4,65.1"/>
					<circle class="st2" cx="7.1" cy="65.5" r="4.1"/>
					<circle class="st10" cx="15.8" cy="7.3" r="7.5"/>
				</g>
			</g>
			<path class="st11" d="M112.1,169.3l6.9,9.2c0,0,17-10.7,19.6-14.4c0,0-11.5-23.6-19-27.7c-8.8-4.8-20.2-3.7-23.8-4.2
				c-3.2,5.1-5.4,10-11.2,10c-2.6,0-2.3-2.7-4.2-4.1c-2.5-1.9-6.8-3-7.1-6.3c-2.8-0.1-15.9,2.8-23.8,6.9
				C39.4,143.9,36,167.8,36,167.8c0.6,2.5,20.1,14.4,20.1,14.4l0.9-12.4l-9,75c2,2.1,18.5,6.6,36.7,7.1c18.5,0.5,40.1-3.1,39.9-7.5
				L112.1,169.3z"/>
			<g transform="translate(151.647 77.335)">
				<circle class="st2" cx="13.1" cy="62.6" r="4.1"/>
				<path class="st2" d="M9.2,58.3L9,62.5l6,3.3l1.8-1.9c0,0,4.1-2,5.8-5.6c0.9-2,1.9-3.9,3-5.8L12.7,50l-2.5,0.9L9.2,58.3z"/>
				<path class="st2" d="M15.9,64.5c0,0,5.1-2.5,6.8-6.1s4.3-8.5,4.3-8.5l-14.1,0.2L10.4,51L10,59.8"/>
				<path class="st12" d="M18,57c0,0-0.7-4.2-4.2-5.8"/>
				<path class="st12" d="M22,54.6c0,0-3.7-0.1-4.8-3.3"/>
				<path class="st13" d="M14.7,54c-0.5-1.1-1-2.4-2.8-3.2c-2.1-0.9-3.2-2.3-3.7-1c-1.3,3,1.1,11.9,3.3,12.6
					C14.6,63.3,16.3,57.2,14.7,54z"/>
				<path class="st14" d="M17.5,43.1c0,0,0.7,1.8-2.6,1.7L14.7,44L17.5,43.1z"/>
				<g transform="translate(0 0)">
					<path class="st15" d="M7.3,0.2L52,4.7c1.3,0.1,2.2,1.2,2,2.5l-4.7,47l0,0L0,49.2l0,0l4.7-47C4.9,1,6,0.1,7.3,0.2z"/>
					<path class="st16" d="M35.8,5.2l-13-1.3c-0.6-0.1-1-0.6-0.9-1.2C22,2.2,22.5,1.8,23,1.8l13,1.3c0.6,0.1,1,0.6,0.9,1.2
						C36.8,4.8,36.3,5.2,35.8,5.2L35.8,5.2z"/>
					<path class="st0" d="M52.9,6.9l-13-1.3c-0.6,0-1-0.5-0.9-1.1c0-0.6,0.5-1,1.1-0.9l0,0L53,4.9c0.6,0,1,0.5,0.9,1.1
						C54,6.5,53.5,7,52.9,6.9L52.9,6.9z"/>
					<path class="st17" d="M18.9,1.4l-13-1.3c0,0-1,0.3-1.1,0.6l0,0L4.6,2.4l0,0l0,0l0,0c0,0,0,0.1,0.1,0.1h0.1l0,0
						C5,2.2,5.3,2.1,5.7,2.1h0.4l12.6,1.3c0.6,0,1.1-0.4,1.1-0.9C19.9,2,19.5,1.5,18.9,1.4L18.9,1.4z"/>
				</g>
				<g transform="translate(8.057 42.955)">
					<g transform="translate(0.017 1.424)">
						<path class="st13" d="M3.8,0.7L3.8,0.7c0.7-0.9,2-1,2.9-0.3c0.4,0.3,0.7,0.8,0.7,1.3c0.1,0.6-0.1,1.2-0.5,1.6l0,0L3.6,7.5l0,0
							c-0.7,0.8-2,0.9-2.8,0.2C0.3,7.3,0.1,6.9,0,6.4s0.1-1.1,0.4-1.5l0,0L3.8,0.7z"/>
					</g>
					<g transform="translate(0 5.836)">
						<path class="st13" d="M0,1.9L0,1.9c0-0.4,0.1-0.8,0.4-1.1c0.7-0.8,1.9-1,2.9-0.5C3.7,0.5,4,0.9,4.1,1.4l0,0l0.6,4.2l0.9,4.3
							c0,0.4-0.1,0.8-0.4,1.1c-0.7,0.8-2.2,1.2-2.9,0.5C1.1,10.2,0,1.9,0,1.9z"/>
					</g>
					<g transform="translate(3.455)">
						<path class="st13" d="M4.6,0.5L4.6,0.5C5.1,0.4,6.7,0,6.7,0S8,3.9,4.6,4.7l-2,0.7L1.8,5.6C1.3,5.8,1.7,5.5,1.2,5.3
							c-1-0.5-1.5-1.7-1-2.7l0,0c0.2-0.5,0.6-0.9,1.1-1.1l0,0L4.6,0.5z"/>
					</g>
				</g>
			</g>
			<g transform="translate(39.867 189.117)">
				<path class="st18" d="M10.2,49.3h26.5v0.5c0,1.1,23.1,1.1,23.1,0v-0.5h36.7v0.8c0,1.7-1.4,1.7-3,1.7H3c-1.7,0-3,0.1-3-1.7v-0.8
					H10.2z"/>
				<polygon class="st19" points="35.5,49 60.8,49 60.8,49 				"/>
				<path class="st20" d="M60.8,49.6c0,1.2-1,2.1-2.1,2.1h-21c-1.2,0-2.1-1-2.1-2.1l0,0V49h25.3L60.8,49.6z"/>
				<g transform="translate(6.309)">
					<path class="st21" d="M54.5,51.7h29.7c0.1-0.4,0.2-0.8,0.2-1.2V3.4C84.5,1.6,83,0.1,81.2,0l0,0h-78C1.4,0,0,1.6,0,3.4l0,0v47.1
						c0,0.4,0.1,0.8,0.2,1.2h29l0,0H54.5L54.5,51.7z"/>
				</g>
				<g transform="translate(42.114 20.655)">
					<path class="st15" d="M6.1,2.1L3.7,6.2C3.3,6.9,2.5,7.1,1.8,6.8l0,0l-1.7-1l0,0l0,0l0,0C0,5.7,0,5.6,0,5.6l0.1-0.1l0,0
						c0.5,0,0.9-0.3,1.1-0.7l0.3-0.5l2.1-3.6C4,0,4.9-0.2,5.6,0.2C6.2,0.6,6.5,1.4,6.1,2.1L6.1,2.1L6.1,2.1z"/>
					<path class="st15" d="M10.6,2.1l-5.7,9.8c-0.4,0.7-1.3,0.9-1.9,0.5c-0.7-0.4-0.9-1.3-0.5-1.9l5.7-9.8C8.5,0,9.4-0.2,10,0.2
						C10.7,0.6,11,1.4,10.6,2.1L10.6,2.1z"/>
					<path class="st15" d="M15.1,2.1l-4.6,8c-0.4,0.7-1.3,0.9-1.9,0.5c-0.8-0.3-1-1.2-0.6-1.8l4.6-8c0.4-0.8,1.3-1,1.9-0.6
						C15.2,0.6,15.4,1.5,15.1,2.1L15.1,2.1z"/>
				</g>
				<path class="st22" d="M28.5,51.8c0,0-3.7,11.7-3.1,18.2s1.2,12.5,8.9,13s39.8,0.2,39.8,0.2L78,47.3L28.5,51.8z"/>
				<path class="st22" d="M81.1,159.3l10.1-67.8c0.9-13.6,0.6-24.6,0.6-24.6S92.4,55,90.6,52s-7-5.4-14.3-4.6s-13.9,2.4-14.1,14.7
					c-0.2,12.3,0,15.3-0.2,42.2c-0.1,10.4,3.4,40.6,3.3,51.8L81.1,159.3z"/>
				<path class="st23" d="M8.5,51.8c0,0-4.2,10.2-3.6,16.8s1,12.7,7.3,13.2S45.1,82,45.1,82l0.3-35.3L8.5,51.8z"/>
				<path class="st23" d="M42.4,156.1c0,0,16.8-71.9,17.1-82.3s2.1-18.3-0.9-22.5c-4.4-6.1-16.4-5.8-21.1-0.9
					c-6.1,6.3-8,22.7-8.5,28.1s-1.7,19.4-1.9,34.7s-0.5,24.1-0.5,40.2L42.4,156.1z"/>
			</g>
			
				<rect x="72.1" y="335.7" transform="matrix(0.146 -0.9893 0.9893 0.146 -277.461 367.3165)" class="st22" width="3.8" height="17.3"/>
			
				<rect x="111.2" y="337.5" transform="matrix(0.146 -0.9893 0.9893 0.146 -245.9017 407.463)" class="st22" width="3.8" height="17.3"/>
			<path class="st3" d="M78.6,135.7l5.1,2.4c0,0-1.6,1.8-7.3,0S78.6,135.7,78.6,135.7z"/>
			<path class="st3" d="M91.7,136.5c0,0-2.1-0.9-3.5,0s-3.8,6.1-3.8,6.1l2.6,18.7c0,0,2.1-18,2.8-19.9s4-3.2,4-3.2L91.7,136.5z"/>
			<path class="st24" d="M80.1,138.9c0,0,2,1.7,2.3,6s0,16.3,0,16.3H87c0,0,0.4-14,0-17.1c-0.2-1.6-3.3-6-3.3-6L80.1,138.9z"/>
			<path class="st24" d="M73.8,127.2c0,0-0.5,3.7,4.8,8.5c-1.8,5.2-3.4,6.1-3.4,6.1s-5.5-4.6-6-9.8
				C70.3,130.1,71.9,128.4,73.8,127.2z"/>
			<path class="st24" d="M95.7,127.6c0,0,0.5,3.7-4.8,8.6c1.8,5.2,3.4,6.1,3.4,6.1s5.5-4.6,6-9.8C99.2,130.6,97.6,128.9,95.7,127.6z
				"/>
			<g transform="translate(59.18 354.295)">
				<path class="st25" d="M6.9,2.2c0,0-2.1-1.5-4.1,4.4C1,12.5,0,18.6,0,24.7c0.2,11.7,1.4,16.7,2.5,20.1c0.9,2.7,2.4,7.3,9.7,7.3
					s7.8-3,8.6-5.9C21.3,44.4,10,25.1,10,25.1L6.9,2.2z"/>
				<path class="st3" d="M18.5,2.6c0,0-1.6,6.4-7.3,5.2C6,6.8,7.3,0,7.3,0C1.6,4.2,1.7,20.7,1.8,26.4C2,33,2.8,48.6,9.5,49.9
					s9.5,0.2,10.7-2.3c2.9-6,1.4-18.6,0.9-27.4C20.8,15.1,18.5,2.6,18.5,2.6z"/>
				<path class="st26" d="M17.4,7.4l-0.3,21.3c0,0.6-0.5,1.2-1.2,1.2l-8.2-0.1c-0.6,0-1.2-0.5-1.2-1.2L6.9,7.2l0,0L17.4,7.4
					L17.4,7.4z"/>
				<path class="st27" d="M17.6,15.2C14,16.5,10,16.4,6.5,15"/>
				<path class="st27" d="M17.3,20.4c-3.6,1.3-7.5,1.2-11.1-0.2"/>
				<path class="st27" d="M17.2,25.3c-3.6,1.3-7.5,1.2-11.1-0.2"/>
				<path class="st11" d="M6.8,9.3L6.5,5.5c0,0,3.1-2.6,6.4-2.4c2.4,0.1,5.2,3.5,5.2,3.5l-0.7,3.6c-1.8,1-3.9,1.4-6,1.1
					C9.8,11,8.2,10.3,6.8,9.3z"/>
			</g>
			<g transform="translate(96.396 355.861)">
				<path class="st25" d="M22.4,2.2c0,0,2.4-1.1,3.1,5.2c0.6,6.1,0.4,12.3-0.8,18.3c-2.5,11.4-4.6,16.1-6.4,19.2
					c-1.4,2.4-3.8,6.7-10.9,5.3s-7-4.5-7.3-7.5C0,40.8,14.8,24.1,14.8,24.1L22.4,2.2z"/>
				<path class="st3" d="M10.9,0.4c0,0,0.3,6.5,6.1,6.6c5.3,0,5.3-6.9,5.3-6.9c4.8,5.2,1.5,21.4,0.2,27c-1.5,6.4-5.3,21.5-12.1,21.5
					S1,46.9,0.3,44.3c-1.6-6.5,2.3-18.5,4.5-27.1C6.2,12.2,10.9,0.4,10.9,0.4z"/>
			</g>
			<path class="st26" d="M117.8,363l-3.8,20.9c-0.1,0.6-0.7,1.1-1.4,0.9l-8.1-1.5c-0.6-0.1-1.1-0.7-0.9-1.4l3.8-20.9l0,0L117.8,363
				L117.8,363z"/>
			<path class="st27" d="M105.8,368.7c3.3,2,7.1,2.7,10.9,2"/>
			<path class="st27" d="M105,373.9c3.3,2,7.1,2.7,10.9,2"/>
			<path class="st27" d="M104.2,378.7c3.3,2,7.1,2.7,10.9,2"/>
			<path class="st11" d="M117.4,365.1l1.1-3.7c0,0-2.5-3.2-5.8-3.6c-2.4-0.3-5.8,2.4-5.8,2.4v3.6c1.6,1.3,3.6,2.1,5.7,2.3
				C114.2,366.1,115.9,365.8,117.4,365.1z"/>
			<g transform="translate(235.3)">
				<g transform="translate(119.985 292.751)">
					<path class="st28" d="M16.1,108.4c2.1-27.9,4.5-92.1,2.9-100C18.1,3.8,15.2,0,10.6,0C5.9,0,2.2,3.8,2.2,8.4l0,0
						c0,4.6-6.9,11.7,3.5,100"/>
					<circle class="st28" cx="10.9" cy="108.4" r="5.1"/>
					<circle class="st10" cx="10.6" cy="7.8" r="7.8"/>
				</g>
				<g transform="translate(116.194 198.053)">
					<circle class="st2" cx="14.4" cy="102.5" r="7.8"/>
					<path class="st2" d="M1.5,12.7c0-7,5.7-12.6,12.7-12.6c6.9,0,12.5,5.6,12.6,12.5c0,0.4,0,0.9-0.1,1.3c0,0,1.5,14.5,1.3,33.8
						c-0.2,16.1-1.5,38-5.7,55.3c-1,4.1-3.6,7.4-7.7,7.4s-6.9-3.3-7.9-7.3C1.9,83.3,0.3,61.9,0,46.8c-0.2-11,0.3-21.9,1.6-32.8
						C1.5,13.6,1.5,13.1,1.5,12.7z"/>
					<circle class="st2" cx="14.1" cy="12.6" r="12.6"/>
					<circle class="st2" cx="14.1" cy="12.6" r="12.6"/>
				</g>
				<g transform="translate(84.186 293.064)">
					<g transform="translate(0 0)">
						<path class="st28" d="M0.9,108.1C-0.2,80.1-0.4,15.9,1.4,8c1-4.4,4-8.2,8.6-8s8.2,4.1,8.1,8.7l0,0c-0.2,4.6,6.5,12-7,99.8"/>
						<circle class="st28" cx="6" cy="108.3" r="5.1"/>
					</g>
					<circle class="st10" cx="9.7" cy="7.8" r="7.8"/>
				</g>
				<g transform="translate(82.167 198.429)">
					<circle class="st2" cx="11.8" cy="102.5" r="7.8"/>
					<path class="st2" d="M27.7,13.1C28,6.1,22.6,0.3,15.6,0S2.8,5.2,2.5,12.2c0,0.4,0,0.9,0,1.3c0,0-2,14.4-2.4,33.7
						c-0.4,16.1,0.2,38.1,3.8,55.4c0.9,4.1,3.4,7.5,7.5,7.6s7-3.1,8.1-7c5.4-19.6,7.7-40.9,8.5-56c0.6-10.9,0.5-21.9-0.4-32.8
						C27.7,14,27.7,13.5,27.7,13.1z"/>
					<circle class="st2" cx="15.1" cy="12.6" r="12.6"/>
					<circle class="st2" cx="15.1" cy="12.6" r="12.6"/>
				</g>
				<path class="st15" d="M119.7,368.6l-3.4-38.2c-2-22-2.8-44-2.5-66.1c0.2-14.4,0.4-28.7,0.4-31.3l-30.5-30.9
					c4.2-7.2,64.7-0.3,64.7-0.3l1.5,17.6c4.4,49.9-0.8,100.1-10.2,149.2L119.7,368.6L119.7,368.6z"/>
				<path class="st15" d="M80.6,366.8c-6.5-47.7-9.1-96-2.4-143.7l2.9-21.1c4.2-7.2,35.4,4.8,35.4,4.8l0.2-0.1l-3.1,61.9
					c-1.2,19-3.2,37.9-6,56.8l-6.3,41.9L80.6,366.8z"/>
				<g transform="translate(43.899 387.12)">
					<g transform="translate(0.97 6.829)">
						<path class="st29" d="M35,0C13.1,9.4,0.1,8.9,0.1,15.9L0,22.1l54.5-0.2l0.1-3.7c0.5-3.2,0.8-6.4,0.8-9.6
							c-0.1-4.5-0.8-5.9-0.8-5.9s-1-0.7-10.1-0.1C39.5,3.1,35,0,35,0z"/>
					</g>
					<path class="st30" d="M55.4,29.1c0,0,0.7-0.1,0.9-1.7c0.1-1-0.2-1.9-0.8-2.7l-39.9,1.5c0.4-4.9-9.5-9-9.5-9
						C-3.3,19.4,1,28.9,1,28.9L55.4,29.1z"/>
					<path class="st31" d="M0.1,26.5c0.4,0,55.2-1.8,55.2-1.8"/>
					<path class="st32" d="M17,12.5c0,0,4-1.3,3.5,4.6"/>
					<path class="st32" d="M22.8,10.3c0,0,4.2,1.2,2.8,4.4"/>
					<path class="st32" d="M27.5,8.7c0,0,4-0.5,3.3,3.6"/>
					<path class="st32" d="M33,7.7c0,0,2.4-9.7-1.8-7.3S33,7.7,33,7.7z"/>
					<path class="st32" d="M32.9,7.9c0,0,6.6-7.1,7-2.7S32.9,7.9,32.9,7.9z"/>
					<path class="st32" d="M33,7.8c0,0,0,4.6,5.9,6.1"/>
				</g>
				<g transform="translate(120.845 387.125)">
					<g transform="translate(0.029 6.829)">
						<path class="st29" d="M20.4,0c21.9,9.4,34.9,8.9,34.9,15.9l0.1,6.2L0.9,21.9l-0.1-3.7C0.2,15,0,11.8,0,8.6
							c0.1-4.5,0.8-5.9,0.8-5.9s1-0.7,10.1-0.1C15.8,3.1,20.4,0,20.4,0z"/>
					</g>
					<path class="st30" d="M0.9,29.1c0,0-0.7-0.1-0.9-1.7c-0.1-1,0.2-1.9,0.8-2.7l39.9,1.5c-0.4-4.9,9.5-9,9.5-9
						c9.4,2.2,5.2,11.8,5.2,11.8L0.9,29.1z"/>
					<path class="st31" d="M56.2,26.5C55.8,26.5,1,24.6,1,24.6"/>
					<path class="st32" d="M39.4,12.5c0,0-4-1.3-3.5,4.6"/>
					<path class="st32" d="M33.5,10.3c0,0-4.2,1.2-2.8,4.4"/>
					<path class="st32" d="M28.8,8.7c0,0-4-0.5-3.3,3.6"/>
					<path class="st32" d="M23.3,7.7c0,0-2.4-9.7,1.8-7.3S23.3,7.7,23.3,7.7z"/>
					<path class="st32" d="M23.5,7.9c0,0-6.6-7.1-7-2.7S23.5,7.9,23.5,7.9z"/>
					<path class="st32" d="M23.3,7.8c0,0,0,4.6-5.9,6.1"/>
				</g>
				
					<rect x="110.8" y="55.5" transform="matrix(1 -4.851882e-03 4.851882e-03 1 -0.3285 0.5738)" class="st5" width="14.6" height="25"/>
				<path class="st5" d="M125.1,71.2c0,0,0.3,7.4,7,9.3c5.2,1.5-5.6,10.7-10.4,12.9c-10,4.6-18.5-3.9-21.6-8.8s10.5-4.5,10.5-11.6
					S125.1,71.2,125.1,71.2z"/>
				<path class="st28" d="M96.9,44.5c0.1,13.2,9.7,23.8,21.5,23.7l0,0c10.7-0.1,21.3-10.8,21.2-23.9l2.4-17.5
					C141.9,13.6,131.2,3,118,3l0,0l0,0c-13.2,0.1-24.1,11.4-24.1,24.6L96.9,44.5z"/>
				<path class="st33" d="M117.3,47.3L117.3,47.3l-5.2-0.5c-0.1,0-0.2-0.1-0.3-0.1c-0.1-0.1-0.1-0.2-0.1-0.3l2.2-11.5
					c0-0.2,0.2-0.3,0.4-0.3s0.3,0.2,0.3,0.4l0,0l-2.1,11.1l4.8,0.4c0.2,0,0.3,0.2,0.3,0.4C117.6,47.2,117.5,47.3,117.3,47.3
					L117.3,47.3z"/>
				<path class="st34" d="M123.4,35.1c0,0.9,0.8,1.7,1.8,1.6c0.9,0,1.7-0.8,1.6-1.8c0-0.9-0.8-1.7-1.8-1.6S123.3,34.2,123.4,35.1
					L123.4,35.1z"/>
				<path class="st34" d="M103,35.1c0,0.9,0.8,1.7,1.8,1.6c0.9,0,1.7-0.8,1.6-1.8c0-0.9-0.8-1.7-1.8-1.6
					C103.7,33.4,103,34.2,103,35.1L103,35.1z"/>
				<path class="st33" d="M137.2,27.1c0.7-0.4-0.3,13.7-0.3,13.7c2.8,3.2,5.1-6.9,5.1-6.9c5-13.9-1-22.8-3.4-25.6
					c-1.9-2.2-6-4.8-7.2-4.5c-1.2,0.2-2.9,5.8-2.9,5.8c1.3-0.7,8.8,6.4,8.6,13.7L137.2,27.1z"/>
				<path class="st35" d="M112.1,20.9"/>
				<path class="st33" d="M112.2,58.8c0,0,0.2,1.8,3.2,1.8c3.1,0,3.2-1.8,3.2-1.8H112.2z"/>
				<path class="st9" d="M122.2,55.5c-1.3,2.6-4,4.2-6.9,4.1c-3.2-0.1-5.8-1.9-6.6-4.3L122.2,55.5z"/>
				<path class="st33" d="M99.4,50.7c-1.1-2.5-2.6-4.3-2.8-7.8c0.4,4.5,1.2,8.9,2.6,13.1c1.6,4.5,7.3,11.4,14.6,12.2
					c2,0.2,4.1,0.2,6.1,0c6.1-1,11.5-4.3,15.1-9.3c2.9-4.1,4.4-8.9,4.5-13.9c0.1-1.5-2.5,4.1-4.9,6.7c-2.6,2.7-7.3,6.9-8,0.9
					c-0.4-3-9.4-2.8-10.5-2.8c-1.5,0-9.4-0.2-10.3,3C104.1,58.3,100.6,52.6,99.4,50.7z M115.9,62.9c-8,0-8.4-4.7-8.2-9.4l16.3,0.2
					C124.1,58.5,123.5,62.9,115.9,62.9z"/>
				<path class="st36" d="M141.1,34.7c0.2,0.1,0.4,0.3,0.5,0.5s0.1,0.5,0.1,0.7c0,1.5-0.3,2.9-0.9,4.3"/>
				<path class="st28" d="M93,42c0.3,1.9,2,3.2,3.9,3l0,0c1.9-0.3,3.2-2,3-3.9l-1-7.1c-0.3-1.9-2-3.2-3.9-3l0,0
					c-1.9,0.3-3.2,2-3,3.9l0,0L93,42z"/>
				<path class="st28" d="M138.9,44.8l-1.3-0.4c-1.6-0.5-2.5-2.1-2-3.7l2.1-7c0.5-1.6,2.1-2.5,3.7-2l1.3,0.4c1.6,0.5,2.5,2.1,2,3.7
					l-2.1,7C142.1,44.4,140.4,45.3,138.9,44.8z"/>
				<path class="st33" d="M120.7,0.1c-6.5-0.4-13,0.9-20.6,7.4c-3.6,3.1-9,12.8-4.8,27.5c0,0-0.6-19.8,6.4-18.3
					c4.5,1,8.3,2.7,16.4,2.5c5.4-0.2,10-2.5,13.8-2.6c6.7-0.1,5.6,20.3,4.7,24.5c-0.1,0.4,0.1,0.7,0.5,0.8l0,0l1,0.2l0.7-4.9
					l2.7-8.3l0.5-2c0,0,1.7-7.9-0.4-13.6C138.6,5.6,129.7,0.6,120.7,0.1z"/>
				<g transform="translate(94.954 27.321)">
					<path class="st37" d="M17.3,7.3c0,4-3.8,8.1-8,8.1S2,11.2,2,7.2C2.2,3,5.9-0.3,10.1,0C14,0.2,17.1,3.4,17.3,7.3L17.3,7.3z"/>
					<path class="st37" d="M39.3,7.4c0,4-3.8,8.1-8,8.1S24,11.3,24,7.3c0.3-4.2,3.9-7.5,8.2-7.2C36,0.4,39.1,3.5,39.3,7.4L39.3,7.4z
						"/>
					<path class="st38" d="M17.3,7.3c0.7-1.1,2-1.8,3.3-1.7c2.2,0.2,3.1,1.4,3.2,2.2"/>
					<path class="st39" d="M44.5,4.9l-4.6,2l0,0"/>
					<line class="st39" x1="0" y1="3.9" x2="1.9" y2="5.9"/>
				</g>
				<g transform="translate(15.334 60.748)">
					<path class="st40" d="M31.7,25c0,0-14.1,6.7-18.5,12.6C13.2,37.5,28.1,41.8,31.7,25z"/>
					<g transform="translate(16.843 17.038)">
						<path class="st41" d="M29.7,76.4c-4.7,1.8-10-0.6-11.8-5.4c-0.1-0.2-0.1-0.4-0.2-0.6L0.3,11.7c-1-3.2,0.8-6.7,4-7.8l0,0
							c1.3-5.5,0.4-6,4.3,3.4L35,64.4c1.9,4.7-0.4,10-5.1,11.9C29.8,76.4,29.7,76.4,29.7,76.4L29.7,76.4z"/>
					</g>
					<g transform="translate(31.774 14.791)">
						<path class="st42" d="M3.4,66.2L3.4,66.2c-3.6-2.9-4.4-8-1.9-11.9l27.3-41.8C35.7,1.7,48.1-2.7,60.3,1.7
							c0,0-2.3,13.8-1.2,17.9L14.7,64.8C11.5,68.1,7,69.1,3.4,66.2z"/>
					</g>
					<path class="st43" d="M11.9,6.6C9.3,6.7,6.8,8,5.3,10.1c-0.5,0.8-0.7,3.7-0.1,5.6c0,0,1,2.2,2.3,0c0.4-0.7,1.3-0.2,2.1-1
						c3,1.3,5.2,4,5.9,7.2c0.6,2.6,3.4-7.9,3.4-7.9L11.9,6.6z"/>
					<path class="st28" d="M7.6,7.6C5,6.8,2.1,2.9,1.2,2C0.7,1.6,0.3,1.1,0.1,0.5c-0.7-2,5.1,2.6,9.7,3.6L8.2,2.8
						c1.1,0.2,7.6,0,9.1,2c7,9.2,6.4,9.9,6.7,12.7c0,0,1.2,7.5,2.7,12.9c0,0,2.7,6.2,5.2,11.1c0,0-6.6,7.1-9.6,5
						c0-0.7-1.7-2.8-1.8-3.5c-0.5-3.3-0.4-5.6-2.1-8.4c-1.4-2-3.1-3.8-4.9-5.3c-1.7-1.6-2.6-2.3-3.6-4.3c-0.8-1.7-2.5-7-3.4-8.6
						c-1.6-3,2.9-4.6,3.9-2.6c2.1,4.7,3.9,4.6,4,4.6c3,0.7,4.2-3.8,1.2-8L7.6,7.6z"/>
					<path class="st42" d="M81.6,16l6.2,4.6c0,0,0.9,5,9.7,8.1c14.6,5.2,19.3-8,19.3-8l22.9,8.3c0,0-4.6,10.2-4,20
						c0.3,5.1,3.8,19.1,3.8,19.1l1.3,84.1c0,0-44.8,12.9-84.7-10.3c0,0,3.5-41.4,6.6-67.3c0,0-10.9,31.4-26.1,17.9
						C31,87.5,13,37.6,13,37.6S27.9,35.9,31.7,25l14.6,34.7L81.6,16z"/>
					<g transform="translate(1.91 5.823)">
						<path class="st28" d="M2.1,6C0,3.4-1.2,1.3,1.8,0.1C2.9-0.3,3.9,1,3.9,1l3.5,3.8l0,0c0.3,0.4,0.5,0.9,0.4,1.4
							C7.7,7.5,6.7,8.4,5.4,8.5c-0.6,0-1.1-0.2-1.5-0.6l0,0L2.1,6z"/>
					</g>
					<path class="st28" d="M5.8,13.5l3.7,9.7c0,0,1,4.6,7.1,7.5s1.7-13.3-1.2-14.1c-3-0.8-5.8-5.7-5.8-5.7L5.8,13.5z"/>
					<path class="st43" d="M4.9,7.8C4.6,7.5,4.3,7.4,4,7.4c-1,0.2-1.7,1-1.7,2c0,0,1.1,2.5,2.8,1.4C6.9,9.7,5.6,8.3,4.9,7.8z"/>
					<path class="st44" d="M84.9,14.7c2.4,0.1,8.9,1.2,8.9,1.2s-6.5,7.6,3.7,11.6c13.2,5.1,19.3-7.9,19.3-7.9l22.9,8.3
						c0,0-4.6,10.2-4,20C136,53,139.5,67,139.5,67l1.3,84.1c0,0-44.8,12.9-84.7-10.3c0,0,3.5-41.4,6.6-67.3c0,0-1.5-35.8,7-51.2
						C74.2,14,83.1,14.6,84.9,14.7z"/>
					<g transform="translate(70.656 27.635)">
						<g transform="translate(1.341 13.719)">
							<g transform="translate(0 0)">
								<path class="st45" d="M2.3,2.1l57.6-2c1.2,0,2.3,0.9,2.3,2.2l1.5,43.3c0,1.2-0.9,2.3-2.2,2.3l-57.6,2
									c-1.2,0-2.3-0.9-2.3-2.2L0.1,4.4C0,3.2,1,2.1,2.3,2.1L2.3,2.1z"/>
							</g>
							<g transform="translate(3.056 25.347)">
								<path class="st46" d="M0.6,0c0.3,0,0.6,0.3,0.6,0.6S0.9,1.2,0.6,1.2S0,1,0,0.6l0,0C0,0.3,0.3,0,0.6,0z"/>
							</g>
							<g transform="translate(5.443 4.755)">
								<g>
									<g>
										<g>
											<defs>
												
													<rect id="SVGID_1_" x="0.7" y="0.9" transform="matrix(0.9994 -3.496845e-02 3.496845e-02 0.9994 -0.6884 0.939)" width="51.6" height="38.5"/>
											</defs>
											<clipPath id="SVGID_2_">
												<use xlink:href="#SVGID_1_"  style="overflow:visible;"/>
											</clipPath>
											<g transform="translate(0 0)" class="st47">
												<g transform="translate(-91.021 -69.412)">
													
														<rect x="91.9" y="70.1" transform="matrix(0.9994 -3.496845e-02 3.496845e-02 0.9994 -3.2366 4.6459)" class="st9" width="78.6" height="49.5"/>
													<text transform="matrix(0.9994 -3.501355e-02 3.501355e-02 0.9994 0.3848 13.5792)" class="st48 st49 st50">DOCS</text>
												</g>
											</g>
										</g>
									</g>
								</g>
							</g>
						</g>
						<path class="st40" d="M30.6,55.5c0,0-4.3,15.7,2.9,21C33.5,76.6,39.1,62,30.6,55.5z"/>
						<path class="st41" d="M91,56.4l-60.7,0.1L24,56.1v0.1l-0.1-0.1c-1.1-1-2.3-1.8-3.6-2.6c-1.3-1.1-2.9-2-4.5-2.6L5.5,48.1
							c-0.6,1.4-0.3,3.1,0.8,4.2L2.7,52c-3.6-0.3-3.4,4.1-0.7,4.6c0,0,0,0,0.1,0l0.2,0.1c-0.1,0-0.2,0-0.3,0
							c-1.7,1.1-0.9,4.1,1.2,4.5c-2,0.8-1.5,3.7,0.4,4.5c-1.7,1.1-0.8,4.1,1.4,4.2l10.4,0.8c2.7,0.1,5.3-0.6,7.7-1.8L38,70l54.5,7.7
							c0.9,0.2,1.8,0.3,2.7,0.1c4.1-1,6.3-6.5,4.9-12.3C98.8,59.9,94.9,56.1,91,56.4z"/>
						<path class="st44" d="M68.2,0c0,0,13.6,2.3,19.1,17.6c5.2,14.5,13.2,50.5,13.2,50.5s1.7,6-4.6,9.4c-3.6,2-62.3-1.3-62.3-1.3
							s2.4-17.8-3.1-20.8H74l-9-17.5l-2-26.6L68.2,0z"/>
						<line class="st51" x1="37.6" y1="77.2" x2="64.7" y2="78.1"/>
					</g>
				</g>
				<g transform="translate(0 17.696)">
					<g transform="translate(0 0)">
						<path class="st15" d="M1.2,5.9l49.7-5.8c0.7-0.1,1.2,0.4,1.3,1l0,0L58.1,52l0,0l-52,6.2l0,0l-6-50.9C0.1,6.6,0.5,6,1.2,5.9z"
							/>
						<path class="st16" d="M33.2,4.4L19.4,6c-0.6,0.1-1.1-0.4-1.2-1s0.4-1.1,0.9-1.2l13.8-1.6c0.6-0.1,1.1,0.4,1.2,1
							S33.8,4.3,33.2,4.4z"/>
						<path class="st0" d="M51.2,2.3L37.5,3.9C37,4,36.4,3.6,36.3,3c-0.1-0.6,0.3-1.1,0.9-1.2l0,0L51,0.1C51.6,0,52.1,0.5,52.2,1
							C52.3,1.6,51.9,2.2,51.2,2.3C51.3,2.3,51.3,2.3,51.2,2.3L51.2,2.3z"/>
						<path class="st17" d="M14.9,4.3L1.1,6c0,0-1,0.5-1,0.8l0,0l0.2,1.9l0,0l0,0l0,0l0.1,0.1h0.1l0,0C0.7,8.5,1,8.3,1.3,8.2
							l0.5-0.1l13.3-1.6c0.6-0.1,1-0.6,0.9-1.2C16,4.7,15.4,4.3,14.9,4.3L14.9,4.3z"/>
					</g>
					<g transform="translate(17.244 48.875)">
						<path class="st28" d="M2.1,6C0,3.4-1.2,1.3,1.8,0.1C2.9-0.3,3.9,1,3.9,1l3.5,3.8l0,0c0.3,0.4,0.5,0.9,0.4,1.4
							C7.7,7.5,6.7,8.4,5.4,8.5c-0.6,0-1.1-0.2-1.5-0.6l0,0L2.1,6z"/>
					</g>
					<path class="st28" d="M21.1,56.6l3.7,9.7c0,0,1,4.6,7.1,7.5s1.7-13.3-1.2-14.1S24.8,54,24.8,54L21.1,56.6z"/>
					<path class="st10" d="M20.2,49.6c-0.2-0.2-0.6-0.4-0.9-0.3c-0.9,0.2-1.6,1-1.6,1.9c0,0,1.1,2.5,2.8,1.4
						C22.3,51.5,20.9,50.2,20.2,49.6z"/>
				</g>
				<g transform="translate(110.443 119.814)">
					<path class="st52" d="M7,2.4L4.2,7.2C3.8,8,2.8,8.2,2,7.8l0,0L0,6.7l0,0l0,0l0,0c0-0.1,0-0.2,0-0.3l0.1-0.1l0,0
						c0.5,0,1-0.3,1.3-0.8L1.8,5l2.4-4.1C4.6,0,5.6-0.3,6.4,0.2C7.2,0.6,7.4,1.6,7,2.4L7,2.4L7,2.4z"/>
					<path class="st16" d="M12.2,2.4L5.7,13.7c-0.4,0.8-1.4,1-2.2,0.6s-1-1.4-0.6-2.2L9.3,0.8c0.4-0.8,1.4-1,2.2-0.6
						C12.3,0.7,12.6,1.7,12.2,2.4z"/>
					<path class="st0" d="M17.3,2.4L12,11.7c-0.4,0.8-1.4,1-2.2,0.6s-1-1.4-0.6-2.2l5.3-9.2C15,0,16-0.2,16.7,0.2
						C17.5,0.7,17.8,1.7,17.3,2.4L17.3,2.4z"/>
				</g>
			</g>
			<path class="st53" d="M272.3,60.4l5.7-0.7l-2.4-20.5l-7-5.3h-0.4l-12.7,1.5l0.8,7.1"/>
			<path class="st54" d="M275,40.5l-7.2,0.8l-0.8-7"/>
			<g transform="translate(252.088 47.506)">
				<path class="st53" d="M0,2.2l7.7,12.5l4.9-14"/>
				<path class="st53" d="M6.2,1.5L13.9,14l4.9-14"/>
			</g>
		</g>
		<g transform="translate(280.255 134.735)">
			<g transform="translate(0 10.29)">
				<path class="st55" d="M9.2,6c0.2-0.3,0.3-0.5,0.5-0.8s0.3-0.6,0.4-0.9c0.2-0.5,0.4-1,0.4-1.6c0-1.6-0.7-2.7-2-2.7s-2,1-2,2.6
					c0,0.5,0.1,1,0.3,1.4C6.9,4.3,7,4.6,7.2,4.9s0.3,0.7,0.5,1c0.1,0.2,0.2,0.3,0.2,0.4c0.2,0.3,0.6,0.4,0.9,0.2
					C8.9,6.5,9,6.4,9,6.3C9.1,6.2,9.1,6.1,9.2,6z M8.1,3.6C7.9,3.3,7.9,3,7.8,2.6c0-0.9,0.3-1.3,0.7-1.3s0.7,0.4,0.6,1.3
					C9.1,3,9,3.4,8.9,3.7C8.8,4,8.5,4.6,8.5,4.6S8.1,3.8,8.1,3.6L8.1,3.6z"/>
				<path class="st55" d="M4.8,11.3c-0.3,0-0.6,0.1-0.9,0.1s-0.7,0.1-1,0.2c-0.5,0.1-1,0.3-1.5,0.6c-1.3,0.9-1.8,2.1-1.1,3.1
					s2,1,3.3,0.2c0.4-0.3,0.7-0.6,1-1.1c0.2-0.2,0.4-0.5,0.5-0.8c0.2-0.3,0.4-0.6,0.5-0.9c0.1-0.2,0.2-0.3,0.2-0.4
					c0.1-0.3,0-0.7-0.3-0.9c-0.1,0-0.2-0.1-0.3-0.1C5.1,11.3,5,11.3,4.8,11.3z M3.5,13.6c-0.2,0.3-0.4,0.5-0.7,0.7
					c-0.8,0.5-1.3,0.5-1.5,0.2s0-0.8,0.7-1.3c0.3-0.2,0.7-0.3,1-0.4c0.3-0.1,0.9-0.2,0.9-0.2S3.7,13.4,3.5,13.6z"/>
				<path class="st55" d="M11.3,11.6c0.2,0.2,0.4,0.5,0.6,0.8c0.2,0.3,0.4,0.5,0.7,0.8c0.4,0.4,0.8,0.7,1.3,1
					c1.4,0.7,2.7,0.4,3.2-0.7s-0.1-2.3-1.6-2.9c-0.5-0.2-0.9-0.3-1.4-0.3c-0.3,0-0.6,0-1,0s-0.7,0-1.1,0.1c-0.2,0-0.4,0-0.5,0
					c-0.4,0-0.6,0.4-0.6,0.7c0,0.1,0,0.2,0.1,0.3C11.2,11.3,11.2,11.4,11.3,11.6z M14,11.5c0.3,0,0.7,0.1,1,0.2
					c0.8,0.4,1.1,0.8,0.9,1.2c-0.2,0.3-0.6,0.4-1.5,0c-0.3-0.2-0.6-0.4-0.9-0.7c-0.2-0.2-0.6-0.7-0.6-0.7S13.7,11.5,14,11.5z"/>
				<path class="st55" d="M7.8,5.7c0,0.1,0.1,0.2,0.1,0.4C8.1,6.4,8.2,6.7,8.4,7c0.4,1,1,1.9,1.6,2.8c0.4,0.6,0.8,1.2,1.3,1.7
					l0.4,0.5l1-0.9l-0.4-0.5c-0.4-0.5-0.8-1-1.2-1.6c-0.6-0.8-1-1.7-1.5-2.6C9.3,5.9,9.2,5.5,9.1,5.3L8.9,4.7L7.6,5.1L7.8,5.7
					L7.8,5.7z"/>
				<path class="st55" d="M8.1,5.2L8,5.5C7.9,5.8,7.7,6.1,7.5,6.4C7.1,7.3,6.6,8.2,6.2,9C6.1,9.2,6,9.3,5.9,9.5
					c-0.5,0.9-0.9,1.7-1.3,2.3l-0.3,0.6L5.4,13l0.3-0.6C6.1,11.8,6.5,11,7,10.1C7.2,10,7.3,9.8,7.4,9.6C7.8,8.8,8.3,7.9,8.7,7
					C8.9,6.6,9,6.4,9.2,6.1l0.2-0.3l0.3-0.6L8.4,4.6L8.1,5.2L8.1,5.2z"/>
				<path class="st55" d="M12,10.3c-0.1,0-0.3,0-0.6,0.1c-0.5,0-1,0.1-1.5,0.2c-1.6,0.2-3.2,0.5-4.7,0.8l-0.6,0.1l0.3,1.3l0.6-0.1
					c1.5-0.3,3.1-0.6,4.6-0.8c0.5-0.1,1.1-0.1,1.5-0.2c0.3,0,0.5,0,0.6-0.1l0.7-0.1l-0.1-1.3L12,10.3L12,10.3z"/>
			</g>
			<path class="st56" d="M18.8,27.3l3.9,0.4l2-19.9l-5.5-6.5h-0.4L6.6,0L5.9,6.9"/>
			<path class="st57" d="M24,8.9l-7-0.7l0.7-6.8"/>
		</g>
	</g>
</g>
</svg>
