<?xml version="1.0" encoding="UTF-8"?>
<svg width="2350px" height="2315px" viewBox="0 0 2350 2315" xmlns="http://www.w3.org/2000/svg" xmlns:xlink="http://www.w3.org/1999/xlink" version="1.1">
 <!-- Generated by Pixelmator Pro 2.0.5 -->
 <path id="Path" d="M1175 260.069 C671.663 260.069 264 667.732 264 1171.069 264 1599.2 557.768 1954.529 954.112 2054.7 949.537 2043.303 947.289 2027.331 947.289 2011.437 L947.289 1856.528 833.394 1856.528 C771.912 1856.528 714.926 1829.237 689.883 1779.074 660.266 1724.414 655.691 1640.137 580.563 1587.725 557.768 1569.505 575.988 1551.285 601.031 1553.534 648.868 1567.179 687.557 1599.122 723.997 1646.882 760.437 1694.719 776.408 1706.116 844.714 1706.116 876.58 1706.116 926.665 1703.868 972.254 1696.968 997.297 1633.159 1040.56 1576.25 1092.971 1548.959 787.806 1512.519 642.046 1362.185 642.046 1157.191 642.046 1068.339 680.734 984.062 744.543 911.182 724.074 840.55 696.706 694.79 753.692 637.882 890.38 637.882 972.332 726.733 992.8 749.45 1061.106 726.656 1136.312 713.01 1213.688 713.01 1293.391 713.01 1366.271 726.656 1434.577 749.45 1455.045 726.656 1537.074 637.882 1673.685 637.882 1728.345 692.542 1703.302 840.55 1680.508 911.182 1744.317 981.813 1780.757 1068.339 1780.757 1157.191 1780.757 1362.185 1637.245 1512.519 1334.406 1544.385 1418.683 1587.648 1477.917 1710.613 1477.917 1801.713 L1477.917 2009.189 C1477.917 2016.012 1475.669 2022.834 1475.669 2029.657 1830.92 1906.692 2086 1569.66 2086 1171.069 2086 667.732 1678.337 260.069 1175 260.069 Z" fill="#000000" fill-opacity="1" stroke="none"/>
</svg>
