<?xml version="1.0" encoding="utf-8"?>
<!-- Generator: Adobe Illustrator 16.0.0, SVG Export Plug-In . SVG Version: 6.00 Build 0)  -->
<!DOCTYPE svg PUBLIC "-//W3C//DTD SVG 1.1//EN" "http://www.w3.org/Graphics/SVG/1.1/DTD/svg11.dtd" [
	<!ENTITY ns_flows "http://ns.adobe.com/Flows/1.0/">
	<!ENTITY ns_extend "http://ns.adobe.com/Extensibility/1.0/">
	<!ENTITY ns_ai "http://ns.adobe.com/AdobeIllustrator/10.0/">
	<!ENTITY ns_graphs "http://ns.adobe.com/Graphs/1.0/">
]>
<svg version="1.1" id="Слой_1" xmlns:x="&ns_extend;" xmlns:i="&ns_ai;" xmlns:graph="&ns_graphs;"
	 xmlns="http://www.w3.org/2000/svg" xmlns:xlink="http://www.w3.org/1999/xlink" xmlns:a="http://ns.adobe.com/AdobeSVGViewerExtensions/3.0/"
	 x="0px" y="0px" width="150px" height="190px" viewBox="0 0 150 190" enable-background="new 0 0 150 190" xml:space="preserve">
<path fill-rule="evenodd" clip-rule="evenodd" d="M38.155,140.475l11.349-78.291l49.62,4.31l13.855,15.486l-9.397,65.683
	L38.155,140.475z M78.439,134.314c1.712-1.031,8.685-6.449,8.685-6.449l-5.95-1.685l-0.272-12.019c0,0-7.09,2.296-12.708-0.214
	c0,0.681-0.104,2.734-0.165,3.462C51.206,124.2,58.912,133.833,78.439,134.314z M75.52,87.786c-6.408-0.809-7.55,4.873-7.822,7.242
	c-0.14,1.215-0.373,2.844-0.373,4.838c-0.723,6.24,1.595,7.511,2.264,8.4c0.319,0.426,0.741,2.108,2.867,2.376
	c2.592,0.327,3.11-0.766,3.519-1.101c0.639-0.524,3.08-1.312,3.342-3.575c0.476-4.106,1.874-3.813,2.05-4.801
	c0.24-1.34,0.152-2.805,0.374-4.838C82.288,91.279,80.499,88.413,75.52,87.786z M92.248,84.417l1.033-12.831l-39.677-3.171
	l-8.299,59.35c3.843-5.981,10.464-9.695,15.344-14.595c-1.75-5.588-0.772-15.429,0.983-17.25c-0.358-0.638-0.263-2.035-0.106-3.326
	c0.178-1.481,2.552-3.547,3.238-4.979c1.258-2.625,5.657-6.996,12.606-6.25c13.168,1.414,14.045,9.578,14.182,15.964
	c0.114,5.25,0.271,9.961,0.46,13.051c0.181,2.935-0.411,10.777,2.78,14.861c1.286,1.645,4.771,4.656,4.771,4.656l0.545,1.027
	l6.463-44.51L92.248,84.417z"/>
</svg>
